<svg xmlns="http://www.w3.org/2000/svg" xmlns:xlink="http://www.w3.org/1999/xlink" width="1080" zoomAndPan="magnify" viewBox="0 0 810 809.999993" height="1080" preserveAspectRatio="xMidYMid meet" version="1.0"><defs><clipPath id="ddacf7de9d"><path d="M 18.375 477 L 31 477 L 31 482 L 18.375 482 Z M 18.375 477 " clip-rule="nonzero"/></clipPath><clipPath id="40c4bad061"><path d="M 779 479 L 791.625 479 L 791.625 484 L 779 484 Z M 779 479 " clip-rule="nonzero"/></clipPath><clipPath id="9fdbe84634"><path d="M 289.429688 624.824219 L 525 624.824219 L 525 809.839844 L 289.429688 809.839844 Z M 289.429688 624.824219 " clip-rule="nonzero"/></clipPath><clipPath id="cc8945e4b6"><path d="M 375 751.183594 L 434.738281 751.183594 L 434.738281 809.839844 L 375 809.839844 Z M 375 751.183594 " clip-rule="nonzero"/></clipPath><clipPath id="4a4074f233"><path d="M 387.203125 761.617188 L 423 761.617188 L 423 809.839844 L 387.203125 809.839844 Z M 387.203125 761.617188 " clip-rule="nonzero"/></clipPath></defs><rect x="-81" width="972" fill="#ffffff" y="-80.999999" height="971.999992" fill-opacity="1"/><rect x="-81" width="972" fill="#000000" y="-80.999999" height="971.999992" fill-opacity="1"/><path fill="#9f7339" d="M 372.1875 281.492188 C 386.847656 278.722656 401.773438 277.183594 416.703125 277.425781 C 422.171875 277.511719 427.363281 279.296875 432.707031 279.222656 C 440.179688 279.117188 447.15625 277.808594 454.632812 279.4375 C 475.714844 284.042969 477.890625 304.152344 479.675781 322.320312 C 481.289062 338.742188 481.863281 358.800781 471.796875 373.046875 C 465.964844 381.300781 454.625 383.921875 445.480469 387.375 C 433.964844 391.722656 422.074219 395.261719 409.832031 396.828125 C 391.953125 399.125 373.816406 397.195312 355.96875 394.664062 C 346.035156 393.257812 335.511719 391.375 328.113281 384.605469 C 320.167969 377.332031 317.511719 365.644531 318.664062 354.933594 C 319.949219 343.019531 327.730469 332.925781 329.425781 321.367188 C 330.242188 315.8125 329.222656 311.203125 331.652344 305.746094 C 333.808594 300.910156 337.238281 296.609375 341.394531 293.339844 C 350.117188 286.460938 361.273438 283.558594 372.1875 281.492188 " fill-opacity="1" fill-rule="nonzero"/><path fill="#df932d" d="M 644.152344 483.917969 C 650.003906 479.988281 664.277344 492.433594 666.890625 494.710938 C 673.324219 500.320312 686.011719 513.714844 682.472656 519.714844 C 679.097656 525.433594 660.953125 524.507812 650.679688 514.664062 C 640.660156 505.0625 638.746094 487.546875 644.152344 483.917969 " fill-opacity="1" fill-rule="nonzero"/><path fill="#df932d" d="M 125.921875 518.320312 C 124.933594 516.722656 124.871094 512.175781 141.058594 496.585938 C 142.40625 495.265625 159.171875 478.976562 164.238281 482.519531 C 168.152344 485.261719 164.777344 499.636719 156.328125 508.636719 C 146.148438 519.480469 128.558594 522.582031 125.921875 518.320312 " fill-opacity="1" fill-rule="nonzero"/><path fill="#d84841" d="M 26.640625 474.308594 C 26.820312 475.195312 29.550781 475.394531 32.742188 474.757812 C 35.933594 474.117188 38.378906 472.882812 38.203125 471.996094 C 38.027344 471.109375 35.292969 470.910156 32.101562 471.550781 C 28.910156 472.1875 26.464844 473.421875 26.640625 474.308594 " fill-opacity="1" fill-rule="nonzero"/><path fill="#f2af8f" d="M 127.113281 498.082031 C 129.621094 500.050781 152.632812 522.851562 150.296875 525.488281 C 156.449219 518.542969 162.332031 511.359375 167.925781 503.957031 C 159.507812 493.460938 151.953125 482.667969 143.734375 472.054688 C 143.613281 471.898438 143.492188 471.75 143.375 471.601562 C 139.808594 467.222656 135.769531 465.621094 130.308594 464.113281 C 125.757812 462.863281 121.078125 462.199219 116.398438 461.644531 C 112.320312 461.164062 108.789062 459.179688 105.492188 456.691406 C 100.335938 452.800781 95.949219 448.277344 89.316406 447.042969 C 88.019531 446.796875 86.648438 446.6875 85.410156 447.140625 C 84.171875 447.601562 83.109375 448.75 83.121094 450.070312 C 83.136719 451.859375 84.925781 453.039062 86.46875 453.949219 C 90.714844 456.441406 94.75 459.242188 98.398438 462.550781 C 78.25 466.910156 58.03125 466.484375 37.671875 468.292969 C 36.242188 468.417969 34.734375 468.574219 33.566406 469.410156 C 32.394531 470.242188 31.765625 472.292969 32.621094 473.449219 C 30.058594 473.878906 27.523438 474.480469 25.039062 475.238281 C 24.148438 475.511719 23.230469 475.824219 22.5625 476.476562 C 21.894531 477.125 21.554688 478.207031 22.023438 479.015625 C 22.652344 480.09375 24.195312 480.066406 25.433594 479.902344 C 29.984375 479.292969 34.308594 478.136719 38.859375 477.53125 C 38.296875 478.359375 37.339844 478.820312 36.414062 479.203125 C 35.484375 479.582031 34.507812 479.9375 33.789062 480.632812 C 33.070312 481.332031 32.6875 482.5 33.207031 483.359375 C 33.941406 484.558594 35.710938 484.351562 37.078125 484.019531 C 42.175781 482.773438 47.140625 482.550781 52.328125 482.101562 C 52.46875 482.089844 52.609375 482.078125 52.753906 482.0625 C 51.722656 482.40625 51.03125 483.777344 51.386719 484.882812 C 51.824219 486.234375 53.300781 487.023438 54.714844 487.121094 C 56.132812 487.21875 57.519531 486.769531 58.882812 486.371094 C 69.78125 483.195312 82.5 482.59375 93.722656 484.144531 C 104.859375 485.679688 115.6875 489.753906 124.816406 496.355469 C 125.59375 496.917969 126.359375 497.492188 127.113281 498.082031 " fill-opacity="1" fill-rule="nonzero"/><path fill="#ef9e7c" d="M 22.023438 479.015625 C 22.652344 480.09375 24.195312 480.066406 25.433594 479.902344 C 29.984375 479.292969 34.308594 478.136719 38.859375 477.53125 C 38.296875 478.359375 37.339844 478.820312 36.414062 479.203125 C 35.484375 479.582031 34.507812 479.9375 33.789062 480.632812 C 33.070312 481.332031 32.6875 482.5 33.207031 483.359375 C 33.941406 484.558594 35.710938 484.351562 37.078125 484.019531 C 42.175781 482.773438 47.140625 482.550781 52.328125 482.101562 C 54.285156 481.167969 56.4375 480.503906 58.503906 479.996094 C 71.339844 476.828125 84.636719 476.398438 97.558594 474.160156 C 109.027344 472.175781 120.171875 466.503906 132.058594 467.90625 C 136.058594 468.378906 139.867188 469.679688 143.375 471.601562 C 139.808594 467.222656 135.769531 465.621094 130.308594 464.113281 C 125.757812 462.863281 121.078125 462.199219 116.398438 461.644531 C 112.320312 461.164062 108.789062 459.179688 105.492188 456.691406 C 100.335938 452.800781 95.949219 448.277344 89.316406 447.042969 C 88.019531 446.796875 86.648438 446.6875 85.410156 447.140625 C 84.171875 447.601562 83.109375 448.75 83.121094 450.070312 C 83.136719 451.859375 84.925781 453.039062 86.46875 453.949219 C 90.714844 456.441406 94.75 459.242188 98.398438 462.550781 C 78.25 466.910156 58.03125 466.484375 37.671875 468.292969 C 36.242188 468.417969 34.734375 468.574219 33.566406 469.410156 C 32.394531 470.242188 31.765625 472.292969 32.621094 473.449219 C 30.058594 473.878906 27.523438 474.480469 25.039062 475.238281 C 24.148438 475.511719 23.230469 475.824219 22.5625 476.476562 C 21.894531 477.125 21.554688 478.207031 22.023438 479.015625 " fill-opacity="1" fill-rule="nonzero"/><path fill="#d84841" d="M 47.804688 488.023438 C 47.980469 488.90625 50.710938 489.109375 53.90625 488.46875 C 57.097656 487.832031 59.542969 486.59375 59.367188 485.710938 C 59.1875 484.824219 56.457031 484.625 53.265625 485.261719 C 50.070312 485.902344 47.628906 487.136719 47.804688 488.023438 " fill-opacity="1" fill-rule="nonzero"/><path fill="#d84841" d="M 29.386719 484.550781 C 29.566406 485.4375 32.296875 485.636719 35.488281 485 C 38.679688 484.363281 41.125 483.125 40.949219 482.242188 C 40.769531 481.355469 38.039062 481.152344 34.847656 481.792969 C 31.652344 482.429688 29.210938 483.667969 29.386719 484.550781 " fill-opacity="1" fill-rule="nonzero"/><g clip-path="url(#ddacf7de9d)"><path fill="#d84841" d="M 18.539062 480.914062 C 18.714844 481.800781 21.445312 482 24.640625 481.363281 C 27.832031 480.722656 30.277344 479.488281 30.097656 478.601562 C 29.921875 477.714844 27.191406 477.515625 23.996094 478.15625 C 20.804688 478.792969 18.359375 480.027344 18.539062 480.914062 " fill-opacity="1" fill-rule="nonzero"/></g><path fill="#d84841" d="M 783.320312 476.285156 C 783.140625 477.171875 780.410156 477.371094 777.214844 476.734375 C 774.023438 476.09375 771.578125 474.859375 771.757812 473.976562 C 771.933594 473.089844 774.667969 472.886719 777.859375 473.527344 C 781.050781 474.164062 783.492188 475.398438 783.320312 476.285156 " fill-opacity="1" fill-rule="nonzero"/><path fill="#f2af8f" d="M 682.84375 500.0625 C 680.339844 502.027344 657.324219 524.828125 659.664062 527.464844 C 653.507812 520.519531 647.625 513.335938 642.03125 505.929688 C 650.449219 495.4375 658.003906 484.644531 666.226562 474.03125 C 666.34375 473.875 666.464844 473.726562 666.585938 473.578125 C 670.152344 469.203125 674.191406 467.597656 679.652344 466.09375 C 684.203125 464.839844 688.882812 464.175781 693.5625 463.621094 C 697.640625 463.140625 701.171875 461.15625 704.46875 458.667969 C 709.621094 454.777344 714.011719 450.253906 720.640625 449.015625 C 721.9375 448.777344 723.3125 448.664062 724.550781 449.121094 C 725.789062 449.574219 726.847656 450.726562 726.835938 452.046875 C 726.820312 453.835938 725.035156 455.015625 723.488281 455.925781 C 719.246094 458.417969 715.207031 461.21875 711.558594 464.527344 C 731.710938 468.886719 751.929688 468.460938 772.285156 470.269531 C 773.714844 470.394531 775.222656 470.550781 776.394531 471.386719 C 777.566406 472.21875 778.191406 474.269531 777.335938 475.425781 C 779.898438 475.855469 782.433594 476.457031 784.917969 477.214844 C 785.8125 477.488281 786.726562 477.800781 787.394531 478.453125 C 788.0625 479.101562 788.40625 480.183594 787.9375 480.992188 C 787.304688 482.070312 785.765625 482.042969 784.523438 481.878906 C 779.972656 481.269531 775.652344 480.113281 771.101562 479.507812 C 771.664062 480.335938 772.617188 480.800781 773.546875 481.179688 C 774.472656 481.558594 775.449219 481.910156 776.171875 482.609375 C 776.890625 483.308594 777.269531 484.476562 776.753906 485.335938 C 776.019531 486.535156 774.246094 486.328125 772.882812 485.996094 C 767.78125 484.75 762.820312 484.527344 757.632812 484.078125 C 757.488281 484.070312 757.347656 484.054688 757.207031 484.042969 C 758.238281 484.386719 758.925781 485.753906 758.570312 486.859375 C 758.132812 488.210938 756.65625 489 755.242188 489.097656 C 753.828125 489.195312 752.4375 488.746094 751.074219 488.347656 C 740.179688 485.171875 727.460938 484.570312 716.238281 486.121094 C 705.101562 487.65625 694.269531 491.730469 685.140625 498.332031 C 684.363281 498.894531 683.597656 499.472656 682.84375 500.0625 " fill-opacity="1" fill-rule="nonzero"/><path fill="#ef9e7c" d="M 787.9375 480.992188 C 787.304688 482.070312 785.765625 482.042969 784.523438 481.878906 C 779.972656 481.269531 775.652344 480.113281 771.101562 479.507812 C 771.664062 480.335938 772.617188 480.800781 773.546875 481.179688 C 774.472656 481.558594 775.449219 481.910156 776.171875 482.609375 C 776.890625 483.308594 777.269531 484.476562 776.753906 485.335938 C 776.019531 486.535156 774.246094 486.328125 772.882812 485.996094 C 767.78125 484.75 762.820312 484.527344 757.632812 484.078125 C 755.675781 483.144531 753.519531 482.480469 751.453125 481.972656 C 738.617188 478.804688 725.324219 478.375 712.402344 476.136719 C 700.933594 474.152344 689.785156 468.480469 677.902344 469.882812 C 673.898438 470.355469 670.09375 471.65625 666.585938 473.578125 C 670.152344 469.203125 674.191406 467.597656 679.652344 466.09375 C 684.203125 464.839844 688.882812 464.175781 693.5625 463.621094 C 697.640625 463.140625 701.171875 461.15625 704.46875 458.667969 C 709.621094 454.777344 714.011719 450.253906 720.640625 449.015625 C 721.9375 448.777344 723.3125 448.664062 724.550781 449.121094 C 725.789062 449.574219 726.847656 450.726562 726.835938 452.046875 C 726.820312 453.835938 725.035156 455.015625 723.488281 455.925781 C 719.246094 458.417969 715.207031 461.21875 711.558594 464.527344 C 731.710938 468.886719 751.929688 468.460938 772.285156 470.269531 C 773.714844 470.394531 775.222656 470.550781 776.394531 471.386719 C 777.566406 472.21875 778.191406 474.269531 777.335938 475.425781 C 779.898438 475.855469 782.433594 476.457031 784.917969 477.214844 C 785.8125 477.488281 786.726562 477.800781 787.394531 478.453125 C 788.0625 479.101562 788.40625 480.183594 787.9375 480.992188 " fill-opacity="1" fill-rule="nonzero"/><path fill="#d84841" d="M 762.152344 490 C 761.980469 490.886719 759.246094 491.085938 756.054688 490.449219 C 752.859375 489.808594 750.417969 488.574219 750.59375 487.6875 C 750.773438 486.800781 753.5 486.601562 756.695312 487.238281 C 759.886719 487.878906 762.332031 489.113281 762.152344 490 " fill-opacity="1" fill-rule="nonzero"/><path fill="#d84841" d="M 780.570312 486.527344 C 780.394531 487.414062 777.660156 487.617188 774.46875 486.976562 C 771.277344 486.339844 768.835938 485.101562 769.011719 484.214844 C 769.1875 483.332031 771.917969 483.132812 775.109375 483.769531 C 778.304688 484.40625 780.75 485.644531 780.570312 486.527344 " fill-opacity="1" fill-rule="nonzero"/><g clip-path="url(#40c4bad061)"><path fill="#d84841" d="M 791.421875 482.890625 C 791.246094 483.777344 788.511719 483.976562 785.320312 483.339844 C 782.128906 482.699219 779.683594 481.464844 779.859375 480.582031 C 780.039062 479.695312 782.769531 479.492188 785.964844 480.132812 C 789.152344 480.769531 791.597656 482.003906 791.421875 482.890625 " fill-opacity="1" fill-rule="nonzero"/></g><path fill="#f2af8f" d="M 450.945312 437.832031 C 446.925781 448.492188 442.195312 459.421875 436.496094 469.523438 C 430.90625 479.445312 424.753906 490.464844 413.589844 494.957031 C 405.402344 498.25 396.109375 496.609375 387.59375 494.289062 C 378.09375 491.699219 368.5625 488.183594 361.203125 481.648438 C 353.933594 475.199219 349.320312 466.28125 345.808594 457.214844 C 336.355469 432.789062 333.132812 405.757812 338.023438 380.023438 C 342.207031 378.273438 346.796875 377.804688 351.1875 376.671875 C 355.578125 375.539062 360.050781 373.527344 362.484375 369.699219 C 364.113281 367.136719 364.640625 364.050781 365.066406 361.046875 C 365.964844 354.734375 366.554688 348.382812 366.839844 342.015625 C 367.039062 337.601562 367.085938 333.183594 366.988281 328.765625 C 368.535156 329.410156 370.105469 329.988281 371.691406 330.503906 C 372.113281 330.644531 372.539062 330.777344 372.96875 330.90625 C 373.695312 331.128906 374.425781 331.339844 375.160156 331.53125 C 375.605469 331.652344 376.054688 331.769531 376.507812 331.875 C 376.53125 331.882812 376.554688 331.886719 376.578125 331.894531 C 377.097656 332.019531 377.617188 332.140625 378.132812 332.253906 C 378.164062 332.257812 378.191406 332.265625 378.21875 332.269531 C 380.375 332.742188 382.550781 333.101562 384.742188 333.359375 C 385.289062 333.425781 385.839844 333.484375 386.382812 333.535156 C 386.671875 333.554688 386.957031 333.582031 387.242188 333.605469 C 387.980469 333.667969 388.71875 333.71875 389.460938 333.753906 C 390.675781 333.816406 391.894531 333.847656 393.109375 333.847656 C 393.308594 333.847656 393.503906 333.84375 393.703125 333.84375 C 393.871094 333.84375 394.039062 333.839844 394.207031 333.835938 C 394.386719 333.835938 394.5625 333.832031 394.738281 333.824219 C 394.867188 333.824219 394.992188 333.820312 395.121094 333.816406 C 395.238281 333.8125 395.359375 333.808594 395.476562 333.804688 C 395.808594 333.796875 396.144531 333.78125 396.480469 333.765625 C 396.644531 333.757812 396.804688 333.75 396.964844 333.738281 C 397.152344 333.730469 397.339844 333.71875 397.523438 333.707031 C 397.675781 333.699219 397.832031 333.6875 397.984375 333.679688 C 398.203125 333.664062 398.417969 333.648438 398.636719 333.628906 C 408.160156 332.902344 417.5625 330.3125 426.0625 326 C 426.488281 325.78125 426.914062 325.5625 427.335938 325.332031 C 427.328125 325.585938 427.320312 325.835938 427.308594 326.085938 C 427.023438 334.527344 427.390625 343.003906 426.957031 351.433594 C 426.386719 362.527344 435.28125 368.597656 445.101562 371.5625 C 447.460938 372.273438 449.910156 372.644531 452.25 373.398438 C 454.597656 374.152344 456.894531 375.351562 458.355469 377.335938 C 460.589844 380.363281 459.578125 386.316406 459.589844 389.945312 C 459.605469 395.464844 459.277344 400.992188 458.613281 406.480469 C 457.324219 417.1875 454.75 427.738281 450.945312 437.832031 " fill-opacity="1" fill-rule="nonzero"/><path fill="#ffffff" d="M 505.96875 652.625 C 449.8125 655.320312 393.492188 654.582031 337.425781 650.402344 C 337.164062 650.390625 336.898438 650.367188 336.636719 650.347656 C 336.710938 649.941406 336.785156 649.535156 336.867188 649.121094 C 338.339844 641.546875 340.964844 633.246094 341.101562 625.636719 C 341.808594 585.652344 342.949219 546.023438 344.101562 506.40625 C 344.246094 501.414062 344.152344 505.355469 344.84375 480.894531 C 345.75 448.882812 346.394531 423 346.800781 406.09375 C 348.902344 408.84375 369.242188 434.519531 404.058594 433.925781 C 437.128906 433.363281 456.226562 409.5625 458.613281 406.480469 C 461.785156 448.261719 466.460938 483.835938 470.855469 511.699219 C 481.386719 578.515625 492.214844 612.976562 496.960938 627.382812 C 499.777344 635.929688 502.773438 644.351562 505.96875 652.625 " fill-opacity="1" fill-rule="nonzero"/><path fill="#e8e7eb" d="M 505.96875 652.625 C 449.8125 655.320312 393.492188 654.582031 337.425781 650.402344 C 337.164062 650.390625 336.898438 650.367188 336.636719 650.347656 C 336.710938 649.941406 336.785156 649.535156 336.867188 649.121094 C 338.339844 641.546875 340.964844 633.246094 341.101562 625.636719 C 341.808594 585.652344 342.949219 546.023438 344.101562 506.40625 C 350.449219 507.339844 356.792969 508.199219 363.144531 508.960938 C 389.277344 512.113281 415.449219 513.746094 441.664062 513.214844 C 443.976562 513.167969 446.28125 513.105469 448.59375 513.023438 C 456.011719 512.765625 463.429688 512.332031 470.855469 511.699219 C 476.148438 551.335938 484.824219 590.527344 496.960938 627.382812 C 499.777344 635.929688 502.773438 644.351562 505.96875 652.625 " fill-opacity="1" fill-rule="nonzero"/><path fill="#ceced6" d="M 505.96875 652.625 C 449.8125 655.320312 393.492188 654.582031 337.425781 650.402344 C 337.234375 649.980469 337.046875 649.550781 336.867188 649.121094 C 338.339844 641.546875 340.964844 633.246094 341.101562 625.636719 C 341.808594 585.652344 342.949219 546.023438 344.101562 506.40625 C 344.351562 497.902344 344.597656 489.398438 344.84375 480.894531 C 347.347656 478.289062 350.800781 476.621094 354.316406 477.167969 C 359.089844 477.910156 363.300781 489.566406 360.5 493.496094 C 361.4375 498.640625 362.320312 503.796875 363.144531 508.960938 C 369.5625 549.199219 372.464844 589.996094 371.800781 630.734375 C 402.085938 625.566406 433.160156 625.042969 463.601562 629.199219 C 446.839844 593.433594 440.480469 552.773438 441.664062 513.214844 C 441.859375 506.824219 442.246094 500.464844 442.816406 494.160156 C 444.640625 500.476562 446.570312 506.761719 448.59375 513.023438 C 461.144531 551.808594 477.492188 589.464844 496.101562 625.707031 C 496.386719 626.265625 496.671875 626.820312 496.960938 627.382812 C 499.777344 635.929688 502.773438 644.351562 505.96875 652.625 " fill-opacity="1" fill-rule="nonzero"/><g clip-path="url(#9fdbe84634)"><path fill="#5c83e9" d="M 524.804688 809.839844 L 415.019531 809.839844 C 414.921875 809.542969 414.828125 809.238281 414.738281 808.9375 C 414.695312 808.785156 414.648438 808.632812 414.605469 808.484375 C 414.5625 808.328125 414.523438 808.171875 414.476562 808.019531 C 414.398438 807.710938 414.316406 807.402344 414.238281 807.082031 C 414.164062 806.765625 414.089844 806.449219 414.019531 806.132812 C 413.765625 805.011719 413.558594 803.859375 413.378906 802.6875 C 413.351562 802.519531 413.324219 802.351562 413.300781 802.183594 C 413.273438 802.011719 413.25 801.84375 413.226562 801.675781 C 413.207031 801.546875 413.1875 801.410156 413.167969 801.28125 C 413.140625 801.074219 413.113281 800.867188 413.085938 800.652344 C 413.066406 800.484375 413.046875 800.3125 413.027344 800.140625 C 412.898438 799.113281 412.789062 798.066406 412.695312 797.015625 C 412.6875 796.894531 412.675781 796.769531 412.660156 796.644531 C 412.660156 796.59375 412.652344 796.542969 412.652344 796.492188 C 412.632812 796.257812 412.609375 796.023438 412.59375 795.789062 C 412.574219 795.601562 412.5625 795.414062 412.546875 795.226562 C 412.523438 794.945312 412.503906 794.664062 412.484375 794.382812 C 412.421875 793.59375 412.371094 792.800781 412.328125 792.011719 C 412.289062 791.472656 412.253906 790.929688 412.226562 790.394531 C 412.214844 790.21875 412.203125 790.035156 412.195312 789.855469 C 412.183594 789.675781 412.171875 789.496094 412.164062 789.316406 C 412.121094 788.601562 412.078125 787.886719 412.039062 787.175781 C 412.007812 786.644531 411.976562 786.117188 411.941406 785.585938 C 411.941406 785.53125 411.941406 785.484375 411.929688 785.433594 C 411.921875 785.257812 411.914062 785.085938 411.902344 784.914062 C 411.890625 784.742188 411.878906 784.570312 411.867188 784.402344 C 411.847656 784.097656 411.828125 783.796875 411.804688 783.496094 C 411.789062 783.285156 411.777344 783.078125 411.761719 782.875 C 411.75 782.703125 411.734375 782.539062 411.722656 782.371094 C 411.695312 782.035156 411.667969 781.703125 411.640625 781.371094 C 411.625 781.207031 411.617188 781.042969 411.597656 780.875 C 411.570312 780.5625 411.542969 780.25 411.511719 779.941406 C 411.511719 779.925781 411.511719 779.910156 411.507812 779.894531 C 411.476562 779.582031 411.445312 779.269531 411.410156 778.960938 C 411.355469 778.46875 411.300781 777.984375 411.238281 777.511719 C 410.519531 776.789062 409.660156 775.574219 408.9375 774.855469 C 408.847656 775.917969 408.761719 776.984375 408.679688 778.050781 C 408.566406 779.652344 408.457031 781.246094 408.359375 782.847656 C 408.332031 783.410156 408.300781 783.972656 408.269531 784.53125 C 408.214844 785.546875 408.164062 786.5625 408.117188 787.578125 C 408.117188 787.625 408.113281 787.671875 408.109375 787.71875 C 408.066406 788.742188 408.027344 789.773438 407.996094 790.800781 C 407.886719 794.023438 407.832031 797.25 407.832031 800.476562 C 407.832031 800.90625 407.832031 801.335938 407.835938 801.765625 C 407.839844 802.675781 407.847656 803.582031 407.859375 804.492188 C 407.867188 804.878906 407.871094 805.261719 407.878906 805.648438 C 407.894531 806.367188 407.90625 807.089844 407.929688 807.800781 C 407.933594 808.09375 407.945312 808.378906 407.953125 808.667969 C 407.960938 809.058594 407.972656 809.449219 407.988281 809.839844 L 295.167969 809.839844 C 292.089844 792.296875 289.015625 772.324219 289.59375 754.128906 C 289.683594 751.375 289.851562 748.664062 290.121094 746.007812 C 292.300781 724.363281 298.699219 701.160156 305.636719 680.59375 C 312.6875 659.695312 323.367188 639.972656 339.515625 624.933594 C 340.046875 625.070312 340.574219 625.203125 341.105469 625.335938 C 345.988281 626.558594 350.878906 627.679688 355.773438 628.703125 C 355.957031 628.742188 356.140625 628.78125 356.328125 628.820312 C 357.375 629.035156 358.425781 629.246094 359.476562 629.457031 C 377.757812 633.078125 396.113281 635.261719 414.503906 635.730469 C 420.148438 635.878906 425.792969 635.863281 431.445312 635.679688 C 434.03125 635.59375 436.621094 635.46875 439.210938 635.3125 C 451.097656 634.59375 462.992188 633.113281 474.878906 630.792969 C 478.507812 630.085938 482.144531 629.296875 485.773438 628.433594 C 489.316406 636.550781 492.648438 644.769531 495.738281 653.074219 C 497.644531 658.1875 499.460938 663.339844 501.1875 668.511719 C 506.597656 684.726562 511.132812 701.230469 514.746094 717.9375 C 516.070312 724.066406 517.1875 730.179688 518.140625 736.277344 C 521.960938 760.699219 523.1875 784.972656 524.804688 809.839844 " fill-opacity="1" fill-rule="nonzero"/></g><path fill="#3a5ac5" d="M 327.664062 644.316406 C 348.527344 649.59375 369.457031 654.742188 390.878906 656.972656 C 395.5 657.445312 400.34375 657.800781 404.992188 657.9375 C 420.011719 658.371094 435.082031 657.542969 450.019531 655.949219 C 463.707031 654.484375 477.332031 652.367188 490.902344 649.910156 C 471.636719 654.609375 451.953125 657.871094 432.15625 659.332031 C 416.628906 660.417969 400.953125 660.417969 385.519531 658.238281 C 365.84375 655.5 346.554688 650.316406 327.664062 644.316406 " fill-opacity="1" fill-rule="nonzero"/><path fill="#3a5ac5" d="M 391.757812 665.824219 C 390.300781 681.910156 389.800781 698.035156 390.777344 714.148438 C 391.289062 722.417969 391.902344 731.296875 396.863281 738.234375 C 399.046875 741.226562 401.992188 743.722656 405.46875 745.085938 C 407.222656 745.769531 409.105469 746.125 410.996094 746.101562 C 409.089844 746.347656 407.136719 746.15625 405.289062 745.609375 C 400.601562 744.207031 396.667969 740.769531 394.121094 736.636719 C 390.5625 730.785156 389.519531 723.839844 388.984375 717.128906 C 387.683594 700.011719 388.4375 682.671875 391.757812 665.824219 " fill-opacity="1" fill-rule="nonzero"/><path fill="#3a5ac5" d="M 408.578125 667.382812 C 409.519531 690.539062 410.386719 715.949219 410.996094 739.117188 C 407.582031 715.398438 406.78125 691.277344 408.578125 667.382812 " fill-opacity="1" fill-rule="nonzero"/><path fill="#3a5ac5" d="M 412.019531 638.695312 C 412.886719 642.066406 413.136719 645.476562 413.238281 648.921875 C 413.289062 652.367188 413.179688 655.785156 412.453125 659.191406 C 411.585938 655.820312 411.328125 652.410156 411.230469 648.960938 C 411.191406 645.519531 411.296875 642.101562 412.019531 638.695312 " fill-opacity="1" fill-rule="nonzero"/><path fill="#3a5ac5" d="M 456.523438 657.769531 C 460.1875 669.835938 464.050781 683.703125 476.25 689.644531 C 485.390625 694.214844 495.808594 694.234375 505.863281 694.742188 C 495.667969 695.675781 484.808594 695.996094 475.359375 691.417969 C 462.519531 685.257812 458.53125 670.753906 456.523438 657.769531 " fill-opacity="1" fill-rule="nonzero"/><path fill="#3a5ac5" d="M 518.167969 746.964844 C 494.679688 746.707031 471.304688 748.328125 448.070312 751.789062 C 470.769531 745.574219 494.828125 743.929688 518.167969 746.964844 " fill-opacity="1" fill-rule="nonzero"/><path fill="#3a5ac5" d="M 519.679688 759.378906 C 499.273438 758.371094 478.921875 759.140625 458.648438 761.660156 C 478.445312 756.378906 499.546875 755.601562 519.679688 759.378906 " fill-opacity="1" fill-rule="nonzero"/><g clip-path="url(#cc8945e4b6)"><path fill="#496ad2" d="M 434.667969 756.5 C 432.175781 774.152344 431.222656 791.992188 430.988281 809.839844 L 415.019531 809.839844 C 414.921875 809.542969 414.828125 809.238281 414.738281 808.9375 C 414.695312 808.785156 414.648438 808.632812 414.605469 808.484375 C 414.5625 808.328125 414.523438 808.171875 414.476562 808.019531 C 414.398438 807.710938 414.316406 807.402344 414.238281 807.082031 C 414.164062 806.765625 414.089844 806.449219 414.019531 806.132812 C 413.765625 805.011719 413.558594 803.859375 413.378906 802.6875 C 413.351562 802.519531 413.324219 802.351562 413.300781 802.183594 C 413.273438 802.011719 413.25 801.84375 413.226562 801.675781 C 413.207031 801.546875 413.1875 801.410156 413.167969 801.28125 C 413.140625 801.074219 413.113281 800.867188 413.085938 800.652344 C 413.066406 800.484375 413.046875 800.3125 413.027344 800.140625 C 412.898438 799.113281 412.789062 798.066406 412.695312 797.015625 C 412.6875 796.894531 412.675781 796.769531 412.660156 796.644531 C 412.660156 796.59375 412.652344 796.542969 412.652344 796.492188 C 412.632812 796.257812 412.609375 796.023438 412.59375 795.789062 C 412.574219 795.601562 412.5625 795.414062 412.546875 795.226562 C 412.523438 794.945312 412.503906 794.664062 412.484375 794.382812 C 412.421875 793.59375 412.371094 792.800781 412.328125 792.011719 C 412.289062 791.472656 412.253906 790.929688 412.226562 790.394531 C 412.214844 790.21875 412.203125 790.035156 412.195312 789.855469 C 412.183594 789.675781 412.171875 789.496094 412.164062 789.316406 C 412.121094 788.601562 412.078125 787.886719 412.039062 787.175781 C 412.007812 786.644531 411.976562 786.117188 411.941406 785.585938 C 411.941406 785.53125 411.941406 785.484375 411.929688 785.433594 C 411.921875 785.257812 411.914062 785.085938 411.902344 784.914062 C 411.890625 784.742188 411.878906 784.570312 411.867188 784.402344 C 411.847656 784.097656 411.828125 783.796875 411.804688 783.496094 C 411.789062 783.285156 411.777344 783.078125 411.761719 782.875 C 411.75 782.703125 411.734375 782.539062 411.722656 782.371094 C 411.695312 782.035156 411.667969 781.703125 411.640625 781.371094 C 411.625 781.207031 411.617188 781.042969 411.597656 780.875 C 411.570312 780.5625 411.542969 780.25 411.511719 779.941406 C 411.511719 779.925781 411.511719 779.910156 411.507812 779.894531 C 411.476562 779.582031 411.445312 779.269531 411.410156 778.960938 C 411.355469 778.46875 411.300781 777.984375 411.238281 777.511719 C 410.519531 776.789062 409.660156 775.574219 408.9375 774.855469 C 408.847656 775.917969 408.761719 776.984375 408.679688 778.050781 C 408.566406 779.652344 408.457031 781.246094 408.359375 782.847656 C 408.332031 783.410156 408.300781 783.972656 408.269531 784.53125 C 408.210938 785.546875 408.160156 786.5625 408.117188 787.578125 C 408.117188 787.625 408.113281 787.671875 408.109375 787.71875 C 408.066406 788.742188 408.027344 789.773438 407.996094 790.800781 C 407.886719 794.023438 407.832031 797.25 407.832031 800.476562 C 407.832031 800.90625 407.832031 801.335938 407.835938 801.765625 C 407.839844 802.675781 407.847656 803.582031 407.859375 804.492188 C 407.867188 804.878906 407.871094 805.261719 407.878906 805.648438 C 407.894531 806.367188 407.90625 807.089844 407.929688 807.800781 C 407.933594 808.09375 407.945312 808.378906 407.953125 808.667969 C 407.960938 809.058594 407.972656 809.449219 407.988281 809.839844 L 392.964844 809.839844 C 391.535156 789.398438 385.421875 769.277344 375.132812 751.546875 C 375.167969 751.609375 385.601562 752.722656 386.558594 752.890625 C 391.828125 753.835938 397.199219 754.398438 402.523438 754.9375 C 413.199219 756.023438 423.933594 756.542969 434.667969 756.5 " fill-opacity="1" fill-rule="nonzero"/></g><g clip-path="url(#4a4074f233)"><path fill="#3a5ac5" d="M 421.613281 809.839844 L 415.019531 809.839844 C 414.921875 809.542969 414.828125 809.238281 414.738281 808.9375 C 414.695312 808.785156 414.648438 808.632812 414.605469 808.484375 C 414.5625 808.328125 414.523438 808.171875 414.476562 808.019531 C 414.398438 807.710938 414.316406 807.402344 414.238281 807.082031 C 414.164062 806.765625 414.089844 806.449219 414.019531 806.132812 C 413.765625 805.011719 413.558594 803.859375 413.378906 802.6875 C 413.351562 802.519531 413.324219 802.351562 413.300781 802.183594 C 413.273438 802.011719 413.25 801.84375 413.226562 801.675781 C 413.207031 801.546875 413.1875 801.410156 413.167969 801.28125 C 413.140625 801.074219 413.113281 800.867188 413.085938 800.652344 C 413.066406 800.484375 413.046875 800.3125 413.027344 800.140625 C 412.898438 799.113281 412.789062 798.066406 412.695312 797.015625 C 412.6875 796.894531 412.675781 796.769531 412.660156 796.644531 C 412.660156 796.59375 412.652344 796.542969 412.652344 796.492188 C 412.632812 796.257812 412.609375 796.023438 412.59375 795.789062 C 412.574219 795.601562 412.5625 795.414062 412.546875 795.226562 C 412.523438 794.945312 412.503906 794.664062 412.484375 794.382812 C 412.421875 793.59375 412.371094 792.800781 412.328125 792.011719 C 412.289062 791.472656 412.253906 790.929688 412.226562 790.394531 C 412.214844 790.21875 412.203125 790.035156 412.195312 789.855469 C 412.183594 789.675781 412.171875 789.496094 412.164062 789.316406 C 412.121094 788.601562 412.078125 787.886719 412.039062 787.175781 C 412.007812 786.644531 411.976562 786.117188 411.941406 785.585938 C 411.941406 785.53125 411.941406 785.484375 411.929688 785.433594 C 411.921875 785.257812 411.914062 785.085938 411.902344 784.914062 C 411.890625 784.742188 411.878906 784.570312 411.867188 784.402344 C 411.847656 784.097656 411.828125 783.796875 411.804688 783.496094 C 411.789062 783.285156 411.777344 783.078125 411.761719 782.875 C 411.75 782.703125 411.734375 782.539062 411.722656 782.371094 C 411.695312 782.035156 411.667969 781.703125 411.640625 781.371094 C 411.625 781.207031 411.617188 781.042969 411.597656 780.875 C 411.570312 780.5625 411.542969 780.25 411.511719 779.941406 C 411.511719 779.925781 411.511719 779.910156 411.507812 779.894531 C 411.476562 779.582031 411.445312 779.269531 411.410156 778.960938 C 411.355469 778.46875 411.300781 777.984375 411.238281 777.511719 C 410.519531 776.789062 409.660156 775.574219 408.9375 774.855469 C 408.847656 775.917969 408.761719 776.984375 408.679688 778.050781 C 408.566406 779.652344 408.457031 781.246094 408.359375 782.847656 C 408.332031 783.410156 408.300781 783.972656 408.269531 784.53125 C 408.210938 785.546875 408.160156 786.5625 408.117188 787.578125 C 408.117188 787.625 408.113281 787.671875 408.109375 787.71875 C 408.066406 788.742188 408.027344 789.773438 407.996094 790.800781 C 407.886719 794.023438 407.832031 797.25 407.832031 800.476562 C 407.832031 800.90625 407.832031 801.335938 407.835938 801.765625 C 407.839844 802.675781 407.847656 803.582031 407.859375 804.492188 C 407.867188 804.878906 407.871094 805.261719 407.878906 805.648438 C 407.894531 806.367188 407.90625 807.089844 407.929688 807.800781 C 407.933594 808.09375 407.945312 808.378906 407.953125 808.667969 C 407.960938 809.058594 407.972656 809.449219 407.988281 809.839844 L 398.136719 809.839844 C 398.320312 808.34375 398.476562 806.910156 398.457031 805.65625 C 398.242188 790.382812 394.414062 775.148438 387.246094 761.648438 C 398.917969 764.273438 410.976562 765.171875 422.910156 764.308594 C 419.71875 779.238281 419.292969 794.75 421.613281 809.839844 " fill-opacity="1" fill-rule="nonzero"/></g><path fill="#3a5ac5" d="M 407.761719 648.417969 C 407.761719 652.027344 404.835938 654.953125 401.226562 654.953125 C 397.617188 654.953125 394.691406 652.027344 394.691406 648.417969 C 394.691406 644.808594 397.617188 641.878906 401.226562 641.878906 C 404.835938 641.878906 407.761719 644.808594 407.761719 648.417969 " fill-opacity="1" fill-rule="nonzero"/><path fill="#ef9e7c" d="M 430.976562 364.078125 C 429.644531 364.253906 428.289062 364.359375 426.914062 364.429688 C 424.488281 364.5625 421.984375 364.585938 419.324219 364.703125 C 411.378906 365.054688 404.300781 364.800781 396.550781 362.289062 C 384.984375 358.550781 374.550781 351.40625 366.839844 342.015625 C 367.039062 337.601562 367.085938 333.183594 366.988281 328.765625 C 368.535156 329.410156 370.105469 329.988281 371.691406 330.503906 C 372.113281 330.644531 372.542969 330.777344 372.96875 330.90625 C 373.695312 331.128906 374.425781 331.339844 375.160156 331.53125 C 375.609375 331.652344 376.054688 331.769531 376.507812 331.875 C 376.53125 331.882812 376.554688 331.886719 376.578125 331.894531 C 377.097656 332.019531 377.617188 332.136719 378.132812 332.253906 C 378.164062 332.257812 378.191406 332.265625 378.21875 332.269531 C 380.375 332.738281 382.554688 333.101562 384.742188 333.359375 C 385.289062 333.421875 385.839844 333.480469 386.382812 333.535156 C 386.671875 333.554688 386.957031 333.582031 387.242188 333.605469 C 387.980469 333.667969 388.71875 333.714844 389.460938 333.753906 C 390.675781 333.816406 391.894531 333.847656 393.109375 333.847656 C 393.308594 333.847656 393.503906 333.84375 393.703125 333.84375 C 393.871094 333.84375 394.039062 333.839844 394.207031 333.835938 C 394.386719 333.835938 394.5625 333.832031 394.738281 333.824219 C 394.867188 333.824219 394.992188 333.820312 395.121094 333.816406 C 395.238281 333.8125 395.359375 333.8125 395.476562 333.804688 C 395.808594 333.796875 396.144531 333.78125 396.480469 333.765625 C 396.644531 333.757812 396.804688 333.75 396.964844 333.738281 C 397.152344 333.730469 397.339844 333.722656 397.523438 333.707031 C 397.675781 333.699219 397.832031 333.6875 397.984375 333.679688 C 398.203125 333.664062 398.417969 333.648438 398.636719 333.628906 C 408.671875 332.804688 416.742188 328.722656 426.0625 326 C 426.398438 325.902344 426.734375 325.804688 427.074219 325.710938 C 427.132812 325.804688 427.214844 325.933594 427.308594 326.085938 C 427.023438 334.53125 427.390625 343.003906 426.957031 351.433594 C 426.714844 356.210938 427.648438 360.976562 430.976562 364.078125 " fill-opacity="1" fill-rule="nonzero"/><path fill="#ffffff" d="M 411.964844 316.671875 C 408.78125 321.757812 402.246094 325.089844 395.621094 325.003906 C 388.996094 324.917969 382.574219 321.417969 379.5625 316.253906 C 390.398438 317.867188 401.082031 318.039062 411.964844 316.671875 " fill-opacity="1" fill-rule="nonzero"/><path fill="#f4b020" d="M 656.011719 543.046875 C 655.992188 545.867188 646.332031 552.6875 644.214844 554.613281 C 641.355469 557.21875 638.453125 559.765625 635.507812 562.269531 C 617.117188 577.894531 617.414062 578.15625 612.65625 581.867188 C 607.390625 585.976562 599.535156 591.515625 588.847656 597.011719 C 584.417969 599.847656 579.746094 602.308594 574.578125 602.90625 C 573.664062 603.011719 572.785156 603.058594 571.9375 603.058594 C 562.03125 603.003906 556.207031 595.746094 550.816406 587.9375 C 540.46875 572.933594 531.394531 557.054688 523.710938 540.527344 C 519.703125 531.902344 516.070312 523.105469 512.835938 514.164062 C 510.90625 508.84375 508.753906 493.964844 504.289062 490.203125 C 504.21875 490.148438 504.152344 490.09375 504.085938 490.039062 C 503.929688 489.925781 503.773438 489.824219 503.613281 489.734375 C 498.78125 511.585938 502.59375 538.875 505.628906 561.085938 C 505.699219 561.632812 505.773438 562.167969 505.847656 562.707031 C 509.117188 586.722656 516.113281 609.027344 522.984375 631.785156 C 524.339844 636.273438 525.6875 640.78125 527.007812 645.324219 C 534.929688 672.679688 545.550781 699.386719 560.425781 723.738281 C 539.03125 741.5625 512.144531 752.703125 484.414062 755.230469 C 484.25 712.359375 484.945312 671.6875 474.003906 629.605469 C 464.453125 592.875 448.605469 558.125 442.636719 520.398438 C 434.566406 469.445312 437.585938 416.753906 451.550781 367.085938 C 477.53125 372.59375 503.65625 382.386719 523.300781 400.261719 C 537.675781 413.339844 545.039062 436.097656 551.296875 453.917969 C 556.03125 467.398438 561.042969 480.78125 566.390625 494.03125 C 569.148438 500.855469 571.988281 507.640625 574.929688 514.382812 C 580.34375 526.796875 582.199219 526.984375 595 521.59375 C 606.738281 516.652344 618.113281 510.847656 628.996094 504.234375 C 635.816406 517.234375 644.710938 529.394531 654.421875 540.433594 C 655.386719 541.421875 656.019531 542.335938 656.011719 543.046875 " fill-opacity="1" fill-rule="nonzero"/><path fill="#df932d" d="M 611.386719 582.746094 C 605.671875 586.871094 599.261719 590.296875 593.261719 594.011719 C 587.28125 597.71875 581.480469 602.078125 574.265625 602.90625 C 573.464844 602.996094 572.6875 603.046875 571.9375 603.058594 C 561.738281 603.164062 555.796875 595.832031 550.300781 587.9375 C 529.605469 558.210938 513.984375 525.019531 504.289062 490.203125 C 503.988281 489.121094 503.691406 488.03125 503.402344 486.945312 C 503.667969 487.949219 503.890625 488.984375 504.085938 490.039062 C 503.929688 489.925781 503.773438 489.824219 503.613281 489.734375 C 498.78125 511.585938 502.59375 538.875 505.628906 561.085938 C 502.394531 549.21875 500.164062 537.070312 498.945312 524.832031 C 497.625 511.574219 497.496094 498.195312 498.589844 484.917969 C 499.515625 473.707031 499.804688 460.265625 504.140625 449.898438 C 507.339844 463.820312 510.542969 477.742188 513.746094 491.660156 C 516.984375 505.738281 520.25 519.894531 525.8125 533.242188 C 530.933594 545.53125 537.90625 556.929688 544.554688 568.441406 C 549.890625 577.695312 555.371094 588.800781 565.410156 593.816406 C 572.460938 597.339844 580.890625 597.136719 588.488281 594.828125 C 589.171875 594.621094 589.851562 594.398438 590.519531 594.15625 C 592.964844 593.277344 595.328125 592.199219 597.617188 590.992188 C 600.238281 589.617188 602.761719 588.070312 605.230469 586.449219 C 606.652344 585.515625 609.6875 582.492188 611.386719 582.746094 " fill-opacity="1" fill-rule="nonzero"/><path fill="#f4b020" d="M 366.03125 576.210938 C 361.855469 626.140625 350.871094 676.027344 343.816406 725.632812 C 342.234375 736.753906 337.804688 747.410156 335.136719 758.324219 C 322.15625 759.25 309.050781 758.339844 296.308594 755.695312 C 280.722656 752.460938 268.328125 747.15625 259.644531 742.652344 C 262.636719 733.089844 270.203125 708.949219 273.253906 699.214844 C 284.59375 663.042969 291.757812 640.289062 296.484375 624.480469 C 302.703125 603.695312 304.707031 594.933594 306.472656 583.503906 C 313.617188 537.164062 309.761719 492.453125 303.421875 491.65625 C 300.539062 491.296875 299.34375 500.28125 285.9375 528.1875 C 285.9375 528.1875 278.945312 542.734375 256.292969 578.378906 C 254.542969 581.132812 250.148438 586.25 244.191406 592.769531 C 241.789062 595.398438 239.15625 598.085938 235.722656 599.035156 C 231.824219 600.113281 227.75 599.953125 223.667969 598.953125 C 211 595.855469 198.257812 584.683594 190.441406 577.507812 C 175.042969 563.375 160.179688 548.496094 147.890625 531.519531 C 159.785156 524.636719 169.882812 514.675781 176.921875 502.871094 C 188.339844 511.839844 199.359375 520.738281 211.34375 529.164062 C 213.960938 531.003906 217.019531 532.9375 220.128906 532.1875 C 223.417969 531.398438 225.257812 527.984375 226.679688 524.917969 C 241.449219 493.039062 254.597656 460.507812 267.828125 428.042969 C 271.886719 418.085938 275.386719 410.691406 282.785156 402.910156 C 289.816406 395.511719 298.953125 390.46875 308.015625 385.992188 C 311.519531 384.257812 348.460938 371.058594 349.761719 376.0625 C 366.410156 440.21875 371.558594 510.160156 366.03125 576.210938 " fill-opacity="1" fill-rule="nonzero"/><path fill="#df932d" d="M 581.644531 524.757812 C 583.503906 534.929688 580.476562 543.488281 573.914062 548.375 C 573.445312 548.699219 572.960938 549.007812 572.453125 549.296875 C 572.667969 548.789062 572.90625 548.304688 573.160156 547.828125 C 574.835938 544.472656 576.523438 541.117188 577.839844 537.53125 C 579.421875 533.472656 580.445312 529.058594 581.644531 524.757812 " fill-opacity="1" fill-rule="nonzero"/><path fill="#df932d" d="M 581.429688 525.496094 C 579.1875 535.589844 573.066406 542.292969 565.121094 544.246094 C 564.5625 544.363281 563.996094 544.453125 563.414062 544.523438 C 563.8125 544.144531 564.21875 543.785156 564.636719 543.449219 C 567.488281 541.011719 570.347656 538.574219 572.953125 535.785156 C 575.988281 532.660156 578.648438 528.988281 581.429688 525.496094 " fill-opacity="1" fill-rule="nonzero"/><path fill="#df932d" d="M 333.414062 379.417969 C 334.125 379.40625 336.167969 393.167969 334.382812 409.324219 C 333.449219 417.785156 331.707031 424.6875 330.277344 429.441406 L 329.335938 428.734375 L 346.621094 428.800781 L 349.402344 428.808594 L 347.488281 430.871094 C 343.949219 434.707031 336.816406 442.324219 333.265625 446.140625 L 333.585938 444.683594 C 342.015625 468.347656 348.308594 493.425781 352.546875 518.214844 C 358.074219 551.316406 359.902344 585.679688 357.644531 619.164062 C 357.140625 625.429688 356.664062 631.804688 355.878906 638.042969 L 355.144531 644.316406 L 355.519531 638.011719 C 355.972656 631.738281 356.148438 625.367188 356.414062 619.105469 C 357.449219 581.542969 354.292969 543.257812 347 506.398438 C 342.84375 485.652344 337.363281 464.796875 330.589844 444.78125 C 334.5 440.734375 341.785156 433.214844 345.710938 429.179688 L 346.578125 431.25 L 329.304688 430.730469 L 328.558594 430.707031 L 328.367188 430.019531 C 329.21875 425.132812 330.367188 417.863281 331.308594 408.984375 C 333.292969 390.300781 332.78125 379.433594 333.414062 379.417969 " fill-opacity="1" fill-rule="nonzero"/><path fill="#df932d" d="M 462.90625 370.53125 C 462.203125 370.613281 462.09375 384.523438 466.117188 400.28125 C 468.222656 408.527344 470.910156 415.117188 472.992188 419.625 C 472.988281 419.625 473.816406 418.792969 473.816406 418.792969 L 456.71875 421.265625 L 453.960938 421.667969 L 456.144531 423.441406 C 460.183594 426.746094 468.3125 433.292969 472.359375 436.578125 L 471.839844 435.179688 C 466.792969 459.785156 464.058594 485.5 463.320312 510.636719 C 462.460938 544.1875 465.445312 578.46875 472.347656 611.308594 C 473.722656 617.441406 475.082031 623.691406 476.726562 629.761719 L 478.335938 635.871094 L 477.078125 629.675781 C 475.757812 623.527344 474.695312 617.246094 473.558594 611.082031 C 467.292969 574.03125 465.082031 535.675781 467.164062 498.160156 C 468.382812 477.039062 470.902344 455.625 474.820312 434.859375 C 470.382812 431.398438 462.121094 424.96875 457.671875 421.519531 L 457.101562 423.691406 L 474.132812 420.765625 L 474.867188 420.640625 L 474.960938 419.929688 C 473.4375 415.210938 471.285156 408.171875 469.117188 399.511719 C 464.542969 381.289062 463.535156 370.457031 462.90625 370.53125 " fill-opacity="1" fill-rule="nonzero"/><path fill="#eba520" d="M 682.472656 519.714844 C 664.378906 516.292969 648.800781 501.734375 644.152344 483.917969 C 634.324219 491.496094 626.472656 499.585938 617.554688 508.21875 C 621.855469 526.910156 636.816406 542.753906 655.226562 548.121094 C 665 539.59375 673.777344 529.347656 682.472656 519.714844 " fill-opacity="1" fill-rule="nonzero"/><path fill="#eba520" d="M 125.921875 518.320312 C 144.015625 514.894531 159.59375 500.339844 164.238281 482.519531 C 174.070312 490.101562 181.917969 498.191406 190.835938 506.824219 C 186.535156 525.515625 171.578125 541.359375 153.164062 546.726562 C 143.390625 538.199219 134.613281 527.949219 125.921875 518.320312 " fill-opacity="1" fill-rule="nonzero"/><path fill="#df932d" d="M 316.941406 526.253906 C 316.234375 555.851562 311.207031 585.347656 302.023438 613.492188 C 300.8125 617.207031 299.476562 620.992188 296.945312 623.96875 C 296.796875 624.140625 296.644531 624.3125 296.484375 624.480469 C 302.703125 603.695312 304.707031 594.933594 306.472656 583.503906 C 313.617188 537.164062 309.761719 492.453125 303.421875 491.65625 C 300.539062 491.296875 299.34375 500.28125 285.9375 528.1875 C 285.9375 528.1875 278.945312 542.734375 256.292969 578.378906 C 254.542969 581.132812 250.148438 586.25 244.191406 592.769531 C 241.789062 595.398438 239.15625 598.085938 235.722656 599.035156 C 231.824219 600.113281 227.75 599.953125 223.667969 598.953125 C 238.292969 594.320312 251.007812 577.257812 258.730469 566.707031 C 273.050781 547.140625 284.097656 525.390625 293.683594 503.183594 C 302.113281 483.648438 304.433594 462.34375 308.105469 441.558594 C 307.097656 447.269531 310.5 456.441406 311.398438 462.238281 C 312.523438 469.5 313.605469 476.769531 314.554688 484.054688 C 316.394531 498.132812 317.28125 512.046875 316.941406 526.253906 " fill-opacity="1" fill-rule="nonzero"/><path fill="#f2af8f" d="M 417.867188 340.773438 C 422.953125 337.0625 427.683594 332.878906 432.285156 328.585938 C 436.523438 324.632812 441.503906 321.34375 445.226562 316.867188 C 448.835938 312.527344 451.347656 307.273438 452.429688 301.734375 C 454.207031 302.863281 456.65625 302.410156 458.328125 301.132812 C 460 299.851562 461.023438 297.910156 461.800781 295.949219 C 466.339844 284.523438 462.800781 272.9375 461.46875 261.296875 C 460.121094 249.566406 459.648438 237.351562 456.335938 226.171875 C 451.695312 210.507812 442.855469 195.644531 429.445312 186.3125 C 415.195312 176.398438 389.894531 171.710938 376.929688 185.808594 C 362.71875 201.261719 347.882812 216.921875 339.96875 236.722656 C 329.191406 263.6875 331.335938 294.894531 349.832031 317.816406 C 356.25 325.769531 363.867188 332.652344 371.746094 339.121094 C 380.363281 346.191406 390.066406 352.324219 401.667969 349.28125 C 406.53125 348.003906 410.984375 345.507812 415.148438 342.6875 C 416.066406 342.066406 416.972656 341.429688 417.867188 340.773438 " fill-opacity="1" fill-rule="nonzero"/><path fill="#b3775d" d="M 403.214844 293.859375 C 402.636719 293.761719 402.042969 293.664062 401.460938 293.765625 C 400.882812 293.871094 400.308594 294.210938 400.089844 294.761719 C 399.832031 295.410156 400.15625 296.191406 400.710938 296.621094 C 401.261719 297.054688 401.988281 297.203125 402.691406 297.226562 C 403.792969 297.273438 406.632812 297.046875 406.925781 295.582031 C 407.277344 293.816406 404.484375 294.066406 403.214844 293.859375 " fill-opacity="1" fill-rule="nonzero"/><path fill="#b3775d" d="M 386.90625 293.859375 C 387.488281 293.761719 388.082031 293.664062 388.664062 293.765625 C 389.242188 293.871094 389.8125 294.210938 390.03125 294.761719 C 390.292969 295.410156 389.96875 296.191406 389.414062 296.621094 C 388.863281 297.054688 388.136719 297.203125 387.433594 297.226562 C 386.332031 297.273438 383.488281 297.046875 383.199219 295.582031 C 382.851562 293.816406 385.636719 294.066406 386.90625 293.859375 " fill-opacity="1" fill-rule="nonzero"/><path fill="#ffffff" d="M 423.929688 256.304688 C 430.734375 254.890625 438.21875 257.476562 442.6875 262.792969 C 440.332031 268.734375 434.09375 272.515625 427.753906 273.3125 C 424.800781 273.683594 421.804688 273.496094 418.886719 272.933594 C 416.394531 272.460938 412.183594 271.839844 410.148438 270.242188 C 407.433594 268.109375 414.792969 260.898438 416.765625 259.484375 C 418.90625 257.957031 421.355469 256.84375 423.929688 256.304688 " fill-opacity="1" fill-rule="nonzero"/><path fill="#64493d" d="M 433.429688 266.3125 C 433.429688 270.554688 429.863281 273.992188 425.460938 273.992188 C 421.0625 273.992188 417.496094 270.554688 417.496094 266.3125 C 417.496094 262.066406 421.0625 258.628906 425.460938 258.628906 C 429.863281 258.628906 433.429688 262.066406 433.429688 266.3125 " fill-opacity="1" fill-rule="nonzero"/><path fill="#000000" d="M 430.34375 266.101562 C 430.34375 268.703125 428.160156 270.808594 425.460938 270.808594 C 422.769531 270.808594 420.582031 268.703125 420.582031 266.101562 C 420.582031 263.503906 422.769531 261.398438 425.460938 261.398438 C 428.160156 261.398438 430.34375 263.503906 430.34375 266.101562 " fill-opacity="1" fill-rule="nonzero"/><path fill="#ffffff" d="M 427.589844 265.378906 C 427.589844 266.378906 426.746094 267.1875 425.710938 267.1875 C 424.675781 267.1875 423.839844 266.378906 423.839844 265.378906 C 423.839844 264.382812 424.675781 263.570312 425.710938 263.570312 C 426.746094 263.570312 427.589844 264.382812 427.589844 265.378906 " fill-opacity="1" fill-rule="nonzero"/><path fill="#ffffff" d="M 432.21875 267.742188 C 432.21875 268.738281 431.378906 269.550781 430.34375 269.550781 C 429.304688 269.550781 428.46875 268.738281 428.46875 267.742188 C 428.46875 266.738281 429.304688 265.933594 430.34375 265.933594 C 431.378906 265.933594 432.21875 266.738281 432.21875 267.742188 " fill-opacity="1" fill-rule="nonzero"/><path fill="#3d1b11" d="M 440.972656 263.324219 C 437.132812 260.289062 432.394531 258.40625 427.515625 257.972656 C 420.273438 257.328125 412.855469 262.226562 409.703125 268.597656 C 410.113281 263.316406 413.4375 258.320312 418.113281 255.832031 C 422.785156 253.339844 428.5625 253.183594 433.496094 255.113281 C 435.761719 255.996094 437.882812 257.296875 440.261719 257.792969 C 442.292969 258.214844 444.460938 258.015625 446.378906 257.222656 C 446.328125 260.324219 444.722656 263.363281 442.1875 265.152344 C 443.445312 265.414062 444.773438 265.359375 446.003906 264.996094 C 444.757812 266.253906 442.96875 266.957031 441.199219 266.882812 C 438.945312 269.699219 435.8125 271.824219 432.390625 272.964844 C 428.964844 274.105469 425.214844 274.234375 421.722656 273.335938 C 425.570312 272.953125 429.386719 272.695312 432.96875 271.234375 C 436.550781 269.769531 439.671875 266.96875 440.972656 263.324219 " fill-opacity="1" fill-rule="nonzero"/><path fill="#ffffff" d="M 366.191406 256.304688 C 359.390625 254.890625 351.90625 257.476562 347.433594 262.792969 C 349.792969 268.734375 356.03125 272.515625 362.371094 273.3125 C 365.324219 273.683594 368.320312 273.496094 371.234375 272.933594 C 373.726562 272.460938 377.941406 271.839844 379.976562 270.242188 C 382.691406 268.109375 375.332031 260.898438 373.355469 259.484375 C 371.214844 257.957031 368.769531 256.84375 366.191406 256.304688 " fill-opacity="1" fill-rule="nonzero"/><path fill="#64493d" d="M 372.894531 266.3125 C 372.894531 270.554688 369.328125 273.992188 364.929688 273.992188 C 360.53125 273.992188 356.964844 270.554688 356.964844 266.3125 C 356.964844 262.066406 360.53125 258.628906 364.929688 258.628906 C 369.328125 258.628906 372.894531 262.066406 372.894531 266.3125 " fill-opacity="1" fill-rule="nonzero"/><path fill="#000000" d="M 369.808594 266.101562 C 369.808594 268.703125 367.625 270.808594 364.929688 270.808594 C 362.234375 270.808594 360.046875 268.703125 360.046875 266.101562 C 360.046875 263.503906 362.234375 261.398438 364.929688 261.398438 C 367.625 261.398438 369.808594 263.503906 369.808594 266.101562 " fill-opacity="1" fill-rule="nonzero"/><path fill="#ffffff" d="M 367.054688 265.378906 C 367.054688 266.378906 366.214844 267.1875 365.179688 267.1875 C 364.144531 267.1875 363.304688 266.378906 363.304688 265.378906 C 363.304688 264.382812 364.144531 263.570312 365.179688 263.570312 C 366.214844 263.570312 367.054688 264.382812 367.054688 265.378906 " fill-opacity="1" fill-rule="nonzero"/><path fill="#ffffff" d="M 371.6875 267.742188 C 371.6875 268.738281 370.847656 269.550781 369.808594 269.550781 C 368.773438 269.550781 367.933594 268.738281 367.933594 267.742188 C 367.933594 266.738281 368.773438 265.933594 369.808594 265.933594 C 370.847656 265.933594 371.6875 266.738281 371.6875 267.742188 " fill-opacity="1" fill-rule="nonzero"/><path fill="#3d1b11" d="M 349.148438 263.324219 C 352.988281 260.289062 357.726562 258.40625 362.605469 257.972656 C 369.851562 257.328125 377.269531 262.226562 380.421875 268.597656 C 380.007812 263.316406 376.6875 258.320312 372.011719 255.832031 C 367.339844 253.339844 361.5625 253.183594 356.628906 255.113281 C 354.363281 255.996094 352.242188 257.296875 349.863281 257.792969 C 347.828125 258.214844 345.667969 258.015625 343.746094 257.222656 C 343.796875 260.324219 345.402344 263.363281 347.9375 265.152344 C 346.675781 265.414062 345.351562 265.359375 344.121094 264.996094 C 345.367188 266.253906 347.15625 266.957031 348.925781 266.882812 C 351.179688 269.699219 354.3125 271.824219 357.734375 272.964844 C 361.15625 274.105469 364.910156 274.234375 368.402344 273.335938 C 364.554688 272.953125 360.738281 272.695312 357.15625 271.234375 C 353.574219 269.769531 350.457031 266.96875 349.148438 263.324219 " fill-opacity="1" fill-rule="nonzero"/><path fill="#740e05" d="M 342.96875 258.015625 C 344.28125 256.234375 346.710938 255.78125 348.902344 255.46875 C 354.839844 254.632812 360.8125 253.859375 366.804688 253.996094 C 371.691406 254.105469 377.824219 254.558594 382.199219 256.972656 C 386.945312 259.582031 384.148438 266.949219 382.550781 270.625 C 381.644531 272.710938 380.578125 275.582031 378.988281 277.253906 C 376.800781 279.5625 372.886719 279.929688 369.910156 280.367188 C 365.171875 281.066406 360.339844 281.085938 355.597656 280.414062 C 352.148438 279.933594 346.894531 279.511719 344.851562 276.273438 C 343.929688 274.8125 343.535156 273.09375 343.15625 271.410156 C 342.261719 267.4375 340.195312 261.765625 342.96875 258.015625 Z M 407.925781 256.972656 C 412.300781 254.558594 418.4375 254.105469 423.320312 253.996094 C 429.3125 253.859375 435.285156 254.632812 441.222656 255.46875 C 443.417969 255.78125 445.84375 256.234375 447.15625 258.015625 C 449.925781 261.765625 447.863281 267.4375 446.96875 271.410156 C 446.589844 273.09375 446.195312 274.8125 445.273438 276.273438 C 443.226562 279.511719 437.980469 279.933594 434.527344 280.414062 C 429.785156 281.085938 424.953125 281.066406 420.214844 280.367188 C 417.238281 279.929688 413.328125 279.5625 411.136719 277.253906 C 409.546875 275.582031 408.476562 272.710938 407.574219 270.625 C 405.976562 266.949219 403.179688 259.582031 407.925781 256.972656 Z M 333.574219 259.171875 C 334.191406 260.351562 336.644531 260.238281 337.035156 261.511719 C 338.125 265.058594 338.675781 268.683594 340.070312 272.164062 C 340.96875 274.421875 341.480469 277.09375 343.210938 278.90625 C 346.269531 282.117188 351.320312 282.59375 355.488281 282.949219 C 360.121094 283.339844 364.78125 283.414062 369.425781 283.164062 C 372.117188 283.019531 374.878906 282.746094 377.292969 281.542969 C 381.414062 279.496094 383.839844 275.089844 385.21875 270.691406 C 385.976562 268.277344 386.527344 265.691406 387.878906 263.511719 C 388.710938 262.167969 389.921875 261.296875 390.320312 260.078125 L 399.800781 260.078125 C 400.203125 261.296875 401.414062 262.167969 402.246094 263.511719 C 403.597656 265.691406 404.148438 268.277344 404.90625 270.691406 C 406.28125 275.089844 408.707031 279.496094 412.832031 281.542969 C 415.246094 282.746094 418.007812 283.019531 420.699219 283.164062 C 425.34375 283.414062 430.007812 283.339844 434.640625 282.949219 C 438.804688 282.59375 443.855469 282.117188 446.917969 278.90625 C 448.644531 277.09375 449.152344 274.421875 450.054688 272.164062 C 451.445312 268.683594 452 265.058594 453.089844 261.511719 C 453.484375 260.238281 455.933594 260.351562 456.550781 259.171875 C 456.785156 258.726562 456.773438 258.199219 456.757812 257.699219 C 456.699219 255.960938 456.644531 254.230469 456.585938 252.496094 C 448.304688 252.019531 439.941406 251.429688 431.660156 250.949219 C 425.878906 250.617188 420.039062 250.316406 414.273438 251.035156 C 410.195312 251.542969 404.589844 252.339844 401.535156 255.5 L 388.589844 255.5 C 385.535156 252.339844 379.929688 251.542969 375.851562 251.035156 C 370.085938 250.316406 364.246094 250.617188 358.464844 250.949219 C 350.179688 251.429688 341.820312 252.019531 333.539062 252.496094 C 333.480469 254.230469 333.425781 255.960938 333.371094 257.699219 C 333.351562 258.199219 333.34375 258.726562 333.574219 259.171875 " fill-opacity="1" fill-rule="nonzero"/><path fill="#865946" d="M 361.015625 232.988281 C 356.71875 235.953125 353.484375 240.429688 352.019531 245.441406 C 358.984375 239.320312 368.058594 235.859375 377.253906 235.128906 C 378.828125 235 380.929688 235.507812 380.488281 233.109375 C 380.257812 231.84375 378.878906 230.621094 377.835938 229.992188 C 375.210938 228.40625 371.78125 228.765625 368.941406 229.480469 C 366.15625 230.179688 363.386719 231.355469 361.015625 232.988281 " fill-opacity="1" fill-rule="nonzero"/><path fill="#865946" d="M 429.679688 232.988281 C 433.976562 235.953125 437.210938 240.429688 438.675781 245.441406 C 431.710938 239.320312 422.636719 235.859375 413.4375 235.128906 C 411.867188 235 409.761719 235.507812 410.203125 233.109375 C 410.4375 231.84375 411.8125 230.621094 412.855469 229.992188 C 415.484375 228.40625 418.910156 228.765625 421.75 229.480469 C 424.539062 230.179688 427.308594 231.355469 429.679688 232.988281 " fill-opacity="1" fill-rule="nonzero"/><path fill="#bf9158" d="M 413.367188 183.410156 C 434.011719 192.804688 448.664062 214.160156 450.007812 236.796875 C 450.566406 246.191406 452.53125 255.457031 455.34375 264.425781 C 457.582031 271.578125 459.878906 281.597656 465.433594 286.9375 C 467.90625 289.316406 467.566406 294.402344 465.589844 297.207031 C 464.542969 298.695312 462.800781 299.601562 461.84375 301.152344 C 459.546875 304.886719 461.097656 313.070312 461.289062 317.375 C 461.597656 324.300781 458.953125 331.050781 455.0625 336.691406 C 449.933594 344.140625 442.996094 350.117188 437.175781 356.996094 C 432.519531 362.511719 427.648438 367.253906 429.976562 375.273438 C 431.75 381.410156 436.910156 386.105469 442.679688 388.835938 C 448.449219 391.570312 454.855469 392.613281 461.160156 393.628906 C 467.34375 402.800781 479.21875 407.3125 490.128906 405.515625 C 485.78125 397.539062 481.472656 388.683594 484.574219 380.144531 C 487.800781 371.253906 497.792969 367.0625 504.179688 360.082031 C 510.03125 353.683594 512.773438 344.5625 511.414062 335.996094 C 510.054688 327.429688 504.625 319.597656 497.078125 315.324219 C 503.6875 307.472656 504.015625 295.839844 499.859375 286.460938 C 495.703125 277.078125 488.253906 269.617188 480.96875 262.394531 C 492.167969 235.25 481.757812 206.695312 465.039062 184.425781 C 459.175781 176.617188 451.515625 169.871094 442.292969 166.664062 C 433.078125 163.453125 422.191406 164.207031 414.363281 170.039062 C 414.554688 164.59375 411.515625 159.652344 406.761719 156.992188 C 402.007812 154.332031 396.3125 153.816406 390.890625 154.34375 C 374.816406 155.921875 358.613281 164.488281 345.339844 173.113281 C 331.894531 181.851562 321 194.5 314.449219 209.144531 C 306.804688 226.234375 305.132812 245.929688 309.789062 264.066406 C 311.359375 270.1875 307.34375 276.589844 304.121094 282.027344 C 300.894531 287.464844 296.800781 292.378906 293.988281 298.039062 C 287.890625 310.304688 288.628906 325.703125 295.867188 337.332031 C 285.203125 352.988281 285.304688 375.675781 296.539062 390.925781 C 301.996094 398.339844 311.113281 404.355469 320.03125 402.0625 C 317.40625 400.519531 315.367188 398.003906 314.402344 395.117188 C 318.816406 396.25 323.410156 396.679688 327.953125 396.386719 C 323.8125 394.546875 321.792969 389.476562 322.425781 384.984375 C 323.058594 380.5 325.835938 376.582031 329.070312 373.402344 C 332.300781 370.222656 336.042969 367.605469 339.320312 364.46875 C 347.90625 356.261719 352.273438 344.648438 352.859375 332.921875 C 353.53125 319.535156 347.101562 308.699219 341.398438 296.988281 C 337.148438 288.261719 332.460938 275.738281 335.492188 265.917969 C 338.378906 256.574219 345.980469 249.964844 353.335938 244.070312 C 360.472656 238.34375 367.984375 231.636719 369.320312 222.582031 C 370.851562 212.261719 377.558594 202.828125 385.460938 196.007812 C 393.363281 189.191406 403.867188 179.082031 413.367188 183.410156 " fill-opacity="1" fill-rule="nonzero"/><path fill="#cda066" d="M 419.941406 178.621094 C 435.726562 182.160156 450.070312 191.949219 458.878906 205.511719 C 464.730469 214.515625 468.039062 224.859375 469.890625 235.371094 C 472.71875 251.457031 473.507812 267.996094 479.476562 283.460938 C 486.628906 301.988281 508.90625 319.78125 506.953125 340.96875 C 505.4375 357.382812 491.847656 361.199219 483.117188 372.648438 C 476.960938 380.714844 478.261719 388.152344 478.5 397.902344 C 473.789062 396.101562 469.238281 393.648438 465.710938 390.046875 C 462.183594 386.445312 459.75 381.585938 459.804688 376.542969 C 459.878906 370.222656 463.726562 364.5625 468.113281 360.015625 C 472.5 355.464844 477.605469 351.546875 481.261719 346.394531 C 487.933594 336.976562 488.785156 323.761719 483.378906 313.5625 C 485.53125 320.417969 481.9375 327.972656 477.691406 333.769531 C 473.449219 339.570312 467.792969 344.167969 463.019531 349.539062 C 458.242188 354.910156 454.210938 361.542969 454.347656 368.726562 C 450.046875 364.113281 450.644531 356.636719 453.414062 350.972656 C 456.628906 344.410156 461.582031 340.753906 466.128906 335.539062 C 470.5 330.527344 472.402344 322.832031 473.507812 316.429688 C 475.949219 302.3125 473.902344 287.625 470.648438 273.8125 C 467.746094 261.472656 464.90625 249.210938 462.140625 236.902344 C 459.570312 225.441406 456.558594 213.648438 450.011719 203.730469 C 443.664062 194.113281 431.769531 181.269531 419.941406 178.621094 " fill-opacity="1" fill-rule="nonzero"/><path fill="#cda066" d="M 386.726562 162.988281 C 377.824219 164.75 370.425781 171.070312 364.957031 178.316406 C 359.488281 185.554688 355.570312 193.828125 350.789062 201.542969 C 346.007812 209.253906 340.082031 216.648438 331.992188 220.769531 C 339.375 222.359375 347.042969 218.460938 352.164062 212.90625 C 357.285156 207.359375 360.425781 200.320312 363.851562 193.589844 C 367.273438 186.855469 371.253906 180.085938 377.4375 175.75 C 387.59375 168.625 401.945312 169.792969 412.226562 176.042969 C 408.6875 172.816406 407 168.460938 402.753906 165.820312 C 398.0625 162.902344 392.132812 161.917969 386.726562 162.988281 " fill-opacity="1" fill-rule="nonzero"/><path fill="#cda066" d="M 406.34375 178.933594 C 398.15625 174.363281 387.425781 177.457031 380.394531 183.664062 C 373.363281 189.875 369.148438 198.570312 364.882812 206.921875 C 360.621094 215.273438 355.875 223.8125 348.222656 229.234375 C 336.683594 237.414062 319.671875 238.359375 315.234375 253.773438 C 313.304688 260.476562 313.859375 267.632812 314.867188 274.53125 C 316.148438 283.273438 318.054688 291.566406 315.890625 300.253906 C 313.753906 308.824219 308.289062 316.050781 302.855469 322.816406 C 296.4375 330.804688 289.589844 339.09375 287.671875 349.15625 C 284.703125 364.722656 292.289062 383.820312 303.609375 394.472656 C 298.242188 383.683594 294.132812 371.765625 295.351562 359.777344 C 296.570312 347.785156 304.238281 335.839844 315.855469 332.636719 C 308.074219 340.523438 303.933594 351.414062 303.15625 362.46875 C 302.378906 373.519531 305.671875 384.820312 312.273438 393.71875 C 306.828125 383.019531 306.992188 369.644531 312.707031 359.082031 C 317.503906 350.203125 325.722656 343.582031 330.695312 334.796875 C 337.09375 323.488281 337.339844 308.9375 331.328125 297.421875 C 326.742188 288.640625 327.890625 277.359375 328.886719 267.5 C 329.882812 257.644531 333.742188 247.6875 341.339844 241.328125 C 345.746094 237.640625 351.140625 235.347656 355.902344 232.128906 C 359.210938 229.890625 362.40625 226.984375 364.164062 223.328125 C 369.507812 212.203125 372.035156 199.964844 380.328125 190.378906 C 387.269531 182.351562 398.191406 176.875 408.507812 179.363281 C 407.058594 177.941406 408.113281 179.921875 406.34375 178.933594 " fill-opacity="1" fill-rule="nonzero"/><path fill="#cda066" d="M 354.546875 179.101562 C 352.550781 179.507812 350.433594 179.78125 348.726562 180.503906 C 346.140625 181.589844 343.84375 183.125 341.40625 184.554688 C 335.757812 187.863281 330.785156 192.292969 327.09375 197.722656 C 319.28125 209.210938 318.839844 226.945312 322.625 239.976562 C 321.144531 234.882812 323.855469 226.195312 325.214844 221.242188 C 326.917969 215.027344 329.28125 208.359375 333.167969 203.171875 C 340.515625 193.363281 347.378906 184.054688 358.355469 177.855469 C 357.269531 178.46875 355.9375 178.820312 354.546875 179.101562 " fill-opacity="1" fill-rule="nonzero"/><path fill="#cda066" d="M 476.660156 230.761719 C 471.558594 217.683594 465.824219 204.660156 457.21875 193.574219 C 448.613281 182.484375 436.789062 173.371094 423.0625 170.4375 C 435.441406 172.628906 444.386719 175.394531 453.96875 184.03125 C 462.460938 191.683594 469.050781 201.46875 472.910156 212.234375 C 473.996094 215.261719 474.867188 218.363281 475.5 221.515625 C 476.0625 224.316406 475.660156 228.183594 476.660156 230.761719 " fill-opacity="1" fill-rule="nonzero"/><path fill="#b3775d" d="M 417.367188 298.085938 C 419.257812 299.785156 421.460938 301.152344 422.878906 303.308594 C 424.234375 305.308594 424.433594 307.996094 423.195312 310.089844 C 422.839844 310.695312 422.410156 311.242188 421.894531 311.695312 C 422.683594 309.257812 422.953125 306.90625 421.632812 304.621094 C 420.375 302.351562 418.1875 300.617188 417.367188 298.085938 " fill-opacity="1" fill-rule="nonzero"/><path fill="#dd5b4e" d="M 415.515625 311.933594 C 414.847656 310.738281 413.660156 309.804688 412.300781 309.636719 C 413.164062 309.742188 411.570312 305.90625 411.425781 305.6875 C 408.917969 301.769531 403.878906 300.765625 399.738281 302.617188 C 397.113281 303.785156 395.183594 306.050781 393.179688 308.03125 C 391.855469 309.339844 390.6875 310.808594 389.65625 312.351562 C 389.101562 313.183594 388.585938 314.042969 388.113281 314.921875 C 387.835938 315.445312 386.785156 316.933594 386.898438 317.519531 C 387 318.046875 388.558594 318.785156 389.003906 319.085938 C 389.84375 319.648438 390.691406 320.207031 391.554688 320.730469 C 394.738281 322.667969 398.402344 323.925781 402.132812 324.351562 C 405.261719 324.707031 408.546875 324.3125 411.273438 322.730469 C 414.734375 320.722656 417.699219 315.851562 415.515625 311.933594 " fill-opacity="1" fill-rule="nonzero"/><path fill="#e47c71" d="M 413.226562 320.097656 C 411.878906 321.824219 409.597656 322.785156 407.417969 322.535156 C 407.132812 322.5 406.832031 322.441406 406.613281 322.25 C 406.332031 321.992188 406.273438 321.542969 406.410156 321.183594 C 406.546875 320.824219 406.835938 320.542969 407.15625 320.332031 C 408.175781 319.664062 409.484375 319.613281 410.570312 319.0625 C 411.398438 318.640625 412.03125 317.953125 412.519531 317.171875 C 412.84375 316.65625 413.171875 315.316406 413.976562 315.300781 C 415.660156 315.269531 413.742188 319.4375 413.226562 320.097656 " fill-opacity="1" fill-rule="nonzero"/><path fill="#e47c71" d="M 404.089844 321.792969 C 403.640625 321.796875 403.214844 321.628906 402.792969 321.476562 C 402.371094 321.328125 401.925781 321.183594 401.480469 321.25 C 401.039062 321.316406 400.601562 321.652344 400.566406 322.09375 C 400.539062 322.472656 400.800781 322.828125 401.132812 323.019531 C 401.460938 323.207031 401.847656 323.269531 402.222656 323.324219 C 402.605469 323.382812 402.996094 323.441406 403.378906 323.382812 C 403.761719 323.324219 404.144531 323.136719 404.34375 322.804688 C 404.539062 322.46875 404.496094 321.984375 404.179688 321.753906 " fill-opacity="1" fill-rule="nonzero"/><path fill="#e47c71" d="M 405.753906 303.023438 C 404.476562 302.742188 403.140625 302.902344 401.867188 303.207031 C 400.066406 303.644531 398.214844 304.492188 397.308594 306.109375 C 397.152344 306.390625 397.027344 306.707031 397.082031 307.023438 C 397.195312 307.625 397.945312 307.921875 398.542969 307.78125 C 399.140625 307.648438 399.617188 307.214844 400.097656 306.835938 C 402.234375 305.136719 404.199219 304.835938 406.761719 305.449219 C 407.496094 305.621094 408.144531 305.558594 407.980469 304.539062 C 407.824219 303.585938 406.566406 303.203125 405.753906 303.023438 " fill-opacity="1" fill-rule="nonzero"/><path fill="#d84841" d="M 401.429688 311.378906 C 403.933594 310.640625 406.4375 309.902344 408.941406 309.164062 C 409.714844 308.941406 410.652344 308.75 411.238281 309.304688 C 411.652344 309.699219 411.714844 310.359375 411.527344 310.902344 C 411.335938 311.441406 410.9375 311.882812 410.527344 312.28125 C 407.878906 314.84375 404.363281 316.199219 400.847656 317.082031 C 399.191406 317.5 397.371094 318.039062 395.683594 318.21875 C 393.632812 318.445312 391.167969 317.886719 389.285156 317.101562 C 390.082031 316.457031 390.972656 316.097656 391.835938 315.574219 C 392.835938 314.976562 393.695312 314.238281 394.753906 313.714844 C 396.875 312.664062 399.171875 312.046875 401.429688 311.378906 " fill-opacity="1" fill-rule="nonzero"/><path fill="#8e2f24" d="M 380.34375 318.542969 C 393.1875 318.542969 405.933594 314.789062 416.710938 307.792969 C 417.652344 307.183594 416.773438 305.667969 415.828125 306.285156 C 405.296875 313.117188 392.898438 316.796875 380.34375 316.792969 C 379.21875 316.792969 379.21875 318.542969 380.34375 318.542969 " fill-opacity="1" fill-rule="nonzero"/></svg>