<svg xmlns="http://www.w3.org/2000/svg" xmlns:xlink="http://www.w3.org/1999/xlink" width="1080" zoomAndPan="magnify" viewBox="0 0 810 809.999993" height="1080" preserveAspectRatio="xMidYMid meet" version="1.0"><defs><clipPath id="2e2f6142df"><path d="M 184.273438 275 L 283 275 L 283 433 L 184.273438 433 Z M 184.273438 275 " clip-rule="nonzero"/></clipPath><clipPath id="ad2ffb223c"><path d="M 447.542969 334.625 L 655.886719 334.625 L 655.886719 734.542969 L 447.542969 734.542969 Z M 447.542969 334.625 " clip-rule="nonzero"/></clipPath><clipPath id="0ce1c676c1"><path d="M 292 118.058594 L 522 118.058594 L 522 377 L 292 377 Z M 292 118.058594 " clip-rule="nonzero"/></clipPath></defs><rect x="-81" width="972" fill="#ffffff" y="-80.999999" height="971.999992" fill-opacity="1"/><rect x="-81" width="972" fill="#ffffff" y="-80.999999" height="971.999992" fill-opacity="1"/><rect x="-81" width="972" fill="#000000" y="-80.999999" height="971.999992" fill-opacity="1"/><path fill="#9f7339" d="M 378.914062 248.816406 C 393.933594 245.976562 409.226562 244.402344 424.519531 244.644531 C 430.117188 244.730469 435.4375 246.566406 440.910156 246.484375 C 448.570312 246.378906 455.71875 245.035156 463.371094 246.707031 C 484.972656 251.421875 487.203125 272.019531 489.027344 290.621094 C 490.683594 307.441406 491.269531 327.988281 480.957031 342.582031 C 474.984375 351.03125 463.363281 353.71875 454 357.25 C 442.199219 361.703125 430.019531 365.324219 417.480469 366.933594 C 399.164062 369.285156 380.582031 367.308594 362.300781 364.71875 C 352.125 363.277344 341.34375 361.347656 333.765625 354.417969 C 325.625 346.964844 322.902344 334.996094 324.085938 324.027344 C 325.402344 311.828125 333.371094 301.488281 335.109375 289.648438 C 335.949219 283.960938 334.898438 279.238281 337.390625 273.652344 C 339.597656 268.699219 343.113281 264.296875 347.371094 260.941406 C 356.308594 253.902344 367.734375 250.929688 378.914062 248.816406 " fill-opacity="1" fill-rule="nonzero"/><path fill="#f2af8f" d="M 461.3125 410.894531 C 456.992188 422.332031 451.914062 434.070312 445.796875 444.917969 C 439.789062 455.570312 433.183594 467.402344 421.195312 472.222656 C 412.398438 475.761719 402.417969 474 393.273438 471.507812 C 383.074219 468.730469 372.835938 464.949219 364.929688 457.9375 C 357.121094 451.011719 352.167969 441.433594 348.402344 431.707031 C 338.25 405.476562 334.785156 376.453125 340.035156 348.820312 C 344.53125 346.941406 349.457031 346.441406 354.175781 345.222656 C 358.890625 344.007812 363.695312 341.847656 366.308594 337.738281 C 368.054688 334.988281 368.625 331.671875 369.082031 328.449219 C 370.046875 321.675781 370.679688 314.847656 370.984375 308.011719 C 371.199219 303.273438 371.253906 298.53125 371.144531 293.789062 C 372.804688 294.480469 374.488281 295.097656 376.195312 295.65625 C 376.648438 295.804688 377.105469 295.949219 377.566406 296.089844 C 378.347656 296.324219 379.132812 296.550781 379.921875 296.761719 C 380.398438 296.886719 380.882812 297.011719 381.367188 297.125 C 381.394531 297.132812 381.421875 297.140625 381.445312 297.148438 C 382 297.28125 382.558594 297.410156 383.113281 297.53125 C 383.148438 297.539062 383.175781 297.546875 383.207031 297.550781 C 385.519531 298.054688 387.859375 298.441406 390.210938 298.71875 C 390.800781 298.785156 391.386719 298.851562 391.976562 298.90625 C 392.28125 298.929688 392.589844 298.960938 392.894531 298.988281 C 393.6875 299.050781 394.480469 299.105469 395.277344 299.144531 C 396.585938 299.207031 397.894531 299.238281 399.199219 299.238281 C 399.410156 299.238281 399.621094 299.238281 399.832031 299.238281 C 400.015625 299.238281 400.199219 299.234375 400.378906 299.234375 C 400.570312 299.230469 400.757812 299.226562 400.949219 299.21875 C 401.085938 299.21875 401.222656 299.210938 401.355469 299.207031 C 401.484375 299.207031 401.613281 299.203125 401.738281 299.199219 C 402.097656 299.1875 402.457031 299.175781 402.820312 299.152344 C 402.992188 299.144531 403.167969 299.140625 403.339844 299.128906 C 403.539062 299.117188 403.738281 299.105469 403.9375 299.09375 C 404.101562 299.085938 404.269531 299.074219 404.433594 299.0625 C 404.667969 299.046875 404.902344 299.027344 405.132812 299.011719 C 415.359375 298.230469 425.460938 295.449219 434.585938 290.816406 C 435.046875 290.585938 435.503906 290.347656 435.957031 290.101562 C 435.945312 290.375 435.9375 290.644531 435.929688 290.914062 C 435.621094 299.972656 436.015625 309.074219 435.550781 318.125 C 434.9375 330.035156 444.488281 336.554688 455.03125 339.734375 C 457.566406 340.5 460.195312 340.898438 462.714844 341.710938 C 465.230469 342.519531 467.703125 343.808594 469.273438 345.9375 C 471.671875 349.1875 470.582031 355.578125 470.59375 359.472656 C 470.613281 365.402344 470.261719 371.335938 469.550781 377.226562 C 468.164062 388.722656 465.398438 400.054688 461.3125 410.894531 " fill-opacity="1" fill-rule="nonzero"/><path fill="#ffffff" d="M 520.402344 641.507812 C 460.09375 644.402344 399.609375 643.609375 339.394531 639.128906 C 339.113281 639.109375 338.828125 639.089844 338.546875 639.066406 C 338.625 638.628906 338.707031 638.191406 338.796875 637.75 C 340.378906 629.621094 343.195312 620.707031 343.339844 612.535156 C 344.101562 569.601562 345.324219 527.054688 346.566406 484.519531 C 346.71875 479.269531 346.609375 483.792969 347.363281 457.125 C 348.558594 414.859375 349.34375 380.902344 349.824219 358.6875 C 355.277344 363.371094 376.210938 380.222656 407.296875 380.035156 C 445.632812 379.8125 469.15625 353.867188 472.808594 349.699219 C 472.664062 406.230469 477.398438 453.851562 482.691406 490.203125 C 492.738281 559.203125 507.148438 603.523438 510.730469 614.40625 C 513.753906 623.585938 516.976562 632.625 520.402344 641.507812 " fill-opacity="1" fill-rule="nonzero"/><path fill="#e8e7eb" d="M 520.402344 641.507812 C 460.09375 644.402344 399.609375 643.609375 339.394531 639.128906 C 339.113281 639.109375 338.828125 639.089844 338.546875 639.066406 C 338.625 638.628906 338.707031 638.191406 338.796875 637.75 C 340.378906 629.621094 343.195312 620.707031 343.339844 612.535156 C 344.101562 569.601562 345.324219 527.054688 346.566406 484.519531 C 353.378906 485.519531 360.195312 486.441406 367.015625 487.261719 C 395.082031 490.644531 423.1875 492.398438 451.347656 491.828125 C 453.828125 491.777344 456.304688 491.710938 458.785156 491.621094 C 466.75 491.34375 474.71875 490.875 482.691406 490.203125 C 488.378906 532.761719 497.695312 574.839844 510.730469 614.40625 C 513.753906 623.585938 516.976562 632.625 520.402344 641.507812 " fill-opacity="1" fill-rule="nonzero"/><path fill="#ceced6" d="M 520.402344 641.507812 C 460.09375 644.402344 399.609375 643.609375 339.394531 639.128906 C 339.1875 638.671875 338.988281 638.210938 338.796875 637.75 C 340.378906 629.621094 343.195312 620.707031 343.339844 612.535156 C 344.101562 569.601562 345.324219 527.054688 346.566406 484.519531 C 346.832031 475.390625 347.097656 466.257812 347.363281 457.125 C 350.050781 454.328125 353.761719 452.539062 357.535156 453.125 C 362.660156 453.921875 367.1875 466.4375 364.175781 470.65625 C 365.183594 476.179688 366.128906 481.714844 367.015625 487.261719 C 370.558594 509.457031 373.101562 531.816406 374.644531 554.242188 C 375.4375 565.8125 376.621094 577.722656 376.230469 589.320312 C 375.941406 598.03125 373.207031 605.992188 382.472656 611.609375 C 388.058594 614.996094 394.882812 615.449219 401.410156 615.789062 C 424.152344 616.972656 446.988281 617.839844 469.664062 615.726562 C 474.699219 615.257812 464.78125 590.855469 464.300781 589.363281 C 460.925781 578.925781 458.261719 568.257812 456.238281 557.480469 C 452.179688 535.867188 450.6875 513.796875 451.347656 491.828125 C 451.550781 484.96875 451.96875 478.140625 452.582031 471.367188 C 454.539062 478.148438 456.609375 484.902344 458.785156 491.621094 C 472.269531 533.265625 489.824219 573.695312 509.808594 612.613281 C 510.113281 613.207031 510.421875 613.808594 510.730469 614.40625 C 513.753906 623.585938 516.976562 632.625 520.402344 641.507812 " fill-opacity="1" fill-rule="nonzero"/><path fill="#7e7e7e" d="M 540.636719 810.308594 L 422.726562 810.308594 C 422.625 809.988281 422.523438 809.667969 422.425781 809.34375 C 422.378906 809.179688 422.332031 809.015625 422.285156 808.851562 C 422.238281 808.683594 422.191406 808.523438 422.148438 808.355469 C 422.058594 808.023438 421.972656 807.6875 421.890625 807.351562 C 421.808594 807.015625 421.726562 806.671875 421.652344 806.328125 C 421.386719 805.125 421.160156 803.890625 420.964844 802.632812 C 420.933594 802.453125 420.90625 802.273438 420.878906 802.085938 C 420.851562 801.90625 420.828125 801.726562 420.800781 801.542969 C 420.78125 801.40625 420.761719 801.265625 420.742188 801.121094 C 420.710938 800.898438 420.683594 800.671875 420.65625 800.449219 C 420.628906 800.265625 420.605469 800.082031 420.585938 799.898438 C 420.453125 798.792969 420.335938 797.671875 420.234375 796.542969 C 420.222656 796.410156 420.210938 796.277344 420.199219 796.140625 C 420.191406 796.089844 420.191406 796.035156 420.183594 795.976562 C 420.164062 795.730469 420.140625 795.476562 420.121094 795.222656 C 420.101562 795.023438 420.089844 794.824219 420.070312 794.621094 C 420.050781 794.320312 420.027344 794.015625 420.003906 793.714844 C 419.941406 792.863281 419.886719 792.015625 419.835938 791.171875 C 419.796875 790.589844 419.761719 790.011719 419.726562 789.433594 C 419.714844 789.238281 419.703125 789.046875 419.695312 788.855469 C 419.683594 788.660156 419.671875 788.46875 419.660156 788.273438 C 419.613281 787.507812 419.570312 786.742188 419.527344 785.976562 C 419.496094 785.40625 419.460938 784.839844 419.425781 784.269531 C 419.421875 784.214844 419.417969 784.15625 419.414062 784.101562 C 419.402344 783.914062 419.390625 783.730469 419.378906 783.546875 C 419.367188 783.367188 419.355469 783.183594 419.34375 783 C 419.320312 782.675781 419.300781 782.347656 419.277344 782.027344 C 419.261719 781.800781 419.246094 781.582031 419.230469 781.359375 C 419.214844 781.175781 419.203125 781 419.1875 780.820312 C 419.160156 780.457031 419.132812 780.097656 419.101562 779.742188 C 419.085938 779.566406 419.070312 779.390625 419.054688 779.214844 C 419.027344 778.878906 418.996094 778.542969 418.960938 778.210938 C 418.960938 778.191406 418.960938 778.175781 418.957031 778.160156 C 418.921875 777.824219 418.890625 777.488281 418.851562 777.152344 C 418.796875 776.625 418.734375 776.109375 418.667969 775.597656 C 417.894531 774.824219 416.972656 773.519531 416.195312 772.746094 C 416.101562 773.894531 416.011719 775.035156 415.925781 776.179688 C 415.796875 777.894531 415.679688 779.613281 415.578125 781.332031 C 415.542969 781.933594 415.507812 782.535156 415.476562 783.140625 C 415.417969 784.230469 415.363281 785.320312 415.316406 786.410156 C 415.316406 786.457031 415.3125 786.511719 415.308594 786.558594 C 415.261719 787.660156 415.21875 788.765625 415.183594 789.867188 C 415.066406 793.328125 415.007812 796.796875 415.007812 800.257812 C 415.007812 800.71875 415.007812 801.183594 415.011719 801.644531 C 415.015625 802.617188 415.023438 803.59375 415.039062 804.570312 C 415.046875 804.984375 415.050781 805.398438 415.0625 805.816406 C 415.074219 806.585938 415.089844 807.355469 415.113281 808.125 C 415.117188 808.433594 415.128906 808.742188 415.140625 809.050781 C 415.148438 809.46875 415.164062 809.890625 415.179688 810.308594 L 294.011719 810.308594 C 290.703125 791.476562 287.402344 770.027344 288.027344 750.496094 C 288.121094 747.539062 288.300781 744.628906 288.589844 741.777344 C 290.929688 718.539062 297.804688 693.625 305.253906 671.546875 C 312.824219 649.101562 324.300781 627.925781 341.640625 611.78125 C 342.210938 611.925781 342.777344 612.066406 343.347656 612.210938 C 348.589844 613.523438 353.839844 614.726562 359.097656 615.824219 C 359.296875 615.871094 359.496094 615.910156 359.695312 615.953125 C 360.820312 616.183594 361.949219 616.414062 363.074219 616.632812 C 382.710938 620.523438 402.425781 622.867188 422.171875 623.371094 L 422.175781 623.371094 C 428.238281 623.53125 434.300781 623.515625 440.367188 623.3125 C 443.148438 623.222656 445.929688 623.09375 448.710938 622.925781 C 448.710938 622.921875 448.710938 622.921875 448.710938 622.925781 C 461.476562 622.15625 474.25 620.558594 487.015625 618.074219 C 490.917969 617.3125 494.816406 616.46875 498.71875 615.53125 C 502.527344 624.253906 506.097656 633.078125 509.417969 641.992188 C 511.460938 647.488281 513.414062 653.011719 515.269531 658.570312 C 521.082031 675.980469 525.953125 693.699219 529.832031 711.632812 C 531.253906 718.214844 532.457031 724.777344 533.476562 731.328125 C 537.582031 757.550781 538.898438 783.609375 540.636719 810.308594 " fill-opacity="1" fill-rule="nonzero"/><path fill="#717173" d="M 328.910156 632.59375 C 351.320312 638.257812 373.792969 643.789062 396.804688 646.179688 C 401.765625 646.6875 406.96875 647.066406 411.957031 647.21875 C 428.089844 647.683594 444.273438 646.789062 460.320312 645.082031 C 475.019531 643.507812 489.648438 641.234375 504.226562 638.597656 C 483.535156 643.640625 462.394531 647.144531 441.132812 648.710938 C 424.457031 649.875 407.625 649.875 391.046875 647.535156 C 369.914062 644.601562 349.199219 639.03125 328.910156 632.59375 " fill-opacity="1" fill-rule="nonzero"/><path fill="#717173" d="M 397.746094 655.679688 C 396.179688 672.953125 395.640625 690.269531 396.695312 707.566406 C 397.246094 716.449219 397.902344 725.980469 403.230469 733.429688 C 405.574219 736.640625 408.738281 739.320312 412.46875 740.785156 C 414.355469 741.523438 416.375 741.898438 418.40625 741.878906 C 416.363281 742.144531 414.261719 741.933594 412.277344 741.351562 C 407.246094 739.839844 403.019531 736.152344 400.285156 731.714844 C 396.460938 725.433594 395.339844 717.972656 394.765625 710.769531 C 393.371094 692.390625 394.183594 673.769531 397.746094 655.679688 " fill-opacity="1" fill-rule="nonzero"/><path fill="#717173" d="M 415.8125 657.359375 C 416.824219 682.214844 417.753906 709.503906 418.40625 734.375 C 414.742188 708.910156 413.878906 683.011719 415.8125 657.359375 " fill-opacity="1" fill-rule="nonzero"/><path fill="#717173" d="M 419.507812 626.554688 C 420.4375 630.175781 420.707031 633.835938 420.816406 637.535156 C 420.871094 641.234375 420.753906 644.90625 419.972656 648.5625 C 419.039062 644.941406 418.765625 641.28125 418.664062 637.582031 C 418.613281 633.882812 418.734375 630.210938 419.507812 626.554688 " fill-opacity="1" fill-rule="nonzero"/><path fill="#717173" d="M 467.304688 647.035156 C 471.238281 659.988281 475.382812 674.878906 488.488281 681.261719 C 498.308594 686.167969 509.492188 686.1875 520.289062 686.734375 C 509.34375 687.738281 497.679688 688.078125 487.53125 683.164062 C 473.738281 676.550781 469.457031 660.976562 467.304688 647.035156 " fill-opacity="1" fill-rule="nonzero"/><path fill="#717173" d="M 533.503906 742.804688 C 508.28125 742.527344 483.175781 744.265625 458.222656 747.984375 C 482.605469 741.3125 508.441406 739.542969 533.503906 742.804688 " fill-opacity="1" fill-rule="nonzero"/><path fill="#717173" d="M 535.132812 756.132812 C 513.214844 755.050781 491.359375 755.875 469.585938 758.578125 C 490.84375 752.90625 513.511719 752.074219 535.132812 756.132812 " fill-opacity="1" fill-rule="nonzero"/><path fill="#797979" d="M 443.828125 753.039062 C 441.15625 771.992188 440.132812 791.148438 439.878906 810.308594 L 422.726562 810.308594 C 422.625 809.988281 422.523438 809.667969 422.425781 809.34375 C 422.378906 809.179688 422.332031 809.015625 422.285156 808.851562 C 422.238281 808.683594 422.191406 808.523438 422.148438 808.355469 C 422.058594 808.023438 421.972656 807.6875 421.890625 807.351562 C 421.808594 807.015625 421.726562 806.671875 421.652344 806.328125 C 421.386719 805.125 421.160156 803.890625 420.964844 802.632812 C 420.933594 802.453125 420.90625 802.273438 420.878906 802.085938 C 420.851562 801.90625 420.828125 801.726562 420.800781 801.542969 C 420.78125 801.40625 420.761719 801.265625 420.742188 801.121094 C 420.710938 800.898438 420.683594 800.671875 420.65625 800.449219 C 420.628906 800.265625 420.605469 800.082031 420.585938 799.898438 C 420.453125 798.792969 420.335938 797.671875 420.234375 796.542969 C 420.222656 796.410156 420.210938 796.277344 420.199219 796.140625 C 420.191406 796.089844 420.191406 796.035156 420.183594 795.976562 C 420.164062 795.730469 420.140625 795.476562 420.121094 795.222656 C 420.101562 795.023438 420.089844 794.824219 420.070312 794.621094 C 420.050781 794.320312 420.027344 794.015625 420.003906 793.714844 C 419.941406 792.863281 419.886719 792.015625 419.835938 791.171875 C 419.796875 790.589844 419.761719 790.011719 419.726562 789.433594 C 419.714844 789.238281 419.703125 789.046875 419.695312 788.855469 C 419.683594 788.660156 419.671875 788.46875 419.660156 788.273438 C 419.613281 787.507812 419.570312 786.742188 419.527344 785.976562 C 419.496094 785.40625 419.460938 784.839844 419.425781 784.269531 C 419.421875 784.214844 419.417969 784.15625 419.414062 784.101562 C 419.402344 783.914062 419.390625 783.730469 419.378906 783.546875 C 419.367188 783.367188 419.355469 783.183594 419.34375 783 C 419.320312 782.675781 419.300781 782.347656 419.277344 782.027344 C 419.261719 781.800781 419.246094 781.582031 419.230469 781.359375 C 419.214844 781.175781 419.203125 781 419.1875 780.820312 C 419.160156 780.457031 419.132812 780.097656 419.101562 779.742188 C 419.085938 779.566406 419.070312 779.390625 419.054688 779.214844 C 419.027344 778.878906 418.996094 778.542969 418.960938 778.210938 C 418.960938 778.191406 418.960938 778.175781 418.957031 778.160156 C 418.921875 777.824219 418.890625 777.488281 418.851562 777.152344 C 418.796875 776.625 418.734375 776.109375 418.667969 775.597656 C 417.894531 774.824219 416.972656 773.519531 416.195312 772.746094 C 416.101562 773.894531 416.011719 775.035156 415.925781 776.179688 C 415.796875 777.894531 415.679688 779.613281 415.578125 781.332031 C 415.542969 781.933594 415.507812 782.535156 415.476562 783.140625 C 415.417969 784.226562 415.363281 785.320312 415.316406 786.410156 C 415.316406 786.457031 415.3125 786.511719 415.308594 786.558594 C 415.261719 787.660156 415.21875 788.765625 415.183594 789.867188 C 415.066406 793.328125 415.007812 796.796875 415.007812 800.257812 C 415.007812 800.71875 415.007812 801.183594 415.011719 801.644531 C 415.015625 802.617188 415.023438 803.59375 415.039062 804.570312 C 415.046875 804.984375 415.050781 805.398438 415.0625 805.816406 C 415.074219 806.585938 415.089844 807.355469 415.113281 808.125 C 415.117188 808.433594 415.128906 808.742188 415.140625 809.050781 C 415.148438 809.46875 415.164062 809.890625 415.179688 810.308594 L 399.042969 810.308594 C 397.507812 788.359375 390.9375 766.761719 379.890625 747.722656 C 379.929688 747.789062 391.132812 748.984375 392.164062 749.167969 C 397.820312 750.179688 403.59375 750.785156 409.308594 751.363281 C 420.773438 752.527344 432.304688 753.089844 443.828125 753.039062 " fill-opacity="1" fill-rule="nonzero"/><path fill="#717173" d="M 429.8125 810.308594 L 422.726562 810.308594 C 422.625 809.988281 422.523438 809.667969 422.425781 809.34375 C 422.378906 809.179688 422.332031 809.015625 422.285156 808.851562 C 422.238281 808.683594 422.191406 808.523438 422.148438 808.355469 C 422.058594 808.023438 421.972656 807.6875 421.890625 807.351562 C 421.808594 807.015625 421.726562 806.671875 421.652344 806.328125 C 421.386719 805.125 421.160156 803.890625 420.964844 802.632812 C 420.933594 802.453125 420.90625 802.273438 420.878906 802.085938 C 420.851562 801.90625 420.828125 801.726562 420.800781 801.542969 C 420.78125 801.40625 420.761719 801.265625 420.742188 801.121094 C 420.710938 800.898438 420.683594 800.671875 420.65625 800.449219 C 420.628906 800.265625 420.605469 800.082031 420.585938 799.898438 C 420.453125 798.792969 420.335938 797.671875 420.234375 796.542969 C 420.222656 796.410156 420.210938 796.277344 420.199219 796.140625 C 420.191406 796.089844 420.191406 796.035156 420.183594 795.976562 C 420.164062 795.730469 420.140625 795.476562 420.121094 795.222656 C 420.101562 795.023438 420.089844 794.824219 420.070312 794.621094 C 420.050781 794.320312 420.027344 794.015625 420.003906 793.714844 C 419.941406 792.863281 419.886719 792.015625 419.835938 791.171875 C 419.796875 790.589844 419.761719 790.011719 419.726562 789.433594 C 419.714844 789.238281 419.703125 789.046875 419.695312 788.855469 C 419.683594 788.660156 419.671875 788.46875 419.660156 788.273438 C 419.613281 787.507812 419.570312 786.742188 419.527344 785.976562 C 419.496094 785.40625 419.460938 784.839844 419.425781 784.269531 C 419.421875 784.214844 419.417969 784.15625 419.414062 784.101562 C 419.402344 783.914062 419.390625 783.730469 419.378906 783.546875 C 419.367188 783.367188 419.355469 783.183594 419.34375 783 C 419.320312 782.675781 419.300781 782.347656 419.277344 782.027344 C 419.261719 781.800781 419.246094 781.582031 419.230469 781.359375 C 419.214844 781.175781 419.203125 781 419.1875 780.820312 C 419.160156 780.457031 419.132812 780.097656 419.101562 779.742188 C 419.085938 779.566406 419.070312 779.390625 419.054688 779.214844 C 419.027344 778.878906 418.996094 778.542969 418.960938 778.210938 C 418.960938 778.191406 418.960938 778.175781 418.957031 778.160156 C 418.921875 777.824219 418.890625 777.488281 418.851562 777.152344 C 418.796875 776.625 418.734375 776.109375 418.667969 775.597656 C 417.894531 774.824219 416.972656 773.519531 416.195312 772.746094 C 416.101562 773.894531 416.011719 775.035156 415.925781 776.179688 C 415.796875 777.894531 415.679688 779.613281 415.578125 781.332031 C 415.542969 781.933594 415.507812 782.535156 415.476562 783.140625 C 415.417969 784.226562 415.363281 785.320312 415.316406 786.410156 C 415.316406 786.457031 415.3125 786.511719 415.308594 786.558594 C 415.261719 787.660156 415.21875 788.765625 415.183594 789.867188 C 415.066406 793.328125 415.007812 796.796875 415.007812 800.257812 C 415.007812 800.71875 415.007812 801.183594 415.011719 801.644531 C 415.015625 802.617188 415.023438 803.59375 415.039062 804.570312 C 415.046875 804.984375 415.050781 805.398438 415.0625 805.816406 C 415.074219 806.585938 415.089844 807.355469 415.113281 808.125 C 415.117188 808.433594 415.128906 808.742188 415.140625 809.050781 C 415.148438 809.46875 415.164062 809.890625 415.179688 810.308594 L 404.59375 810.308594 C 404.792969 808.703125 404.960938 807.167969 404.941406 805.820312 C 404.707031 789.421875 400.597656 773.066406 392.898438 758.566406 C 405.4375 761.386719 418.386719 762.351562 431.203125 761.425781 C 427.773438 777.457031 427.316406 794.105469 429.8125 810.308594 " fill-opacity="1" fill-rule="nonzero"/><path fill="#717173" d="M 414.933594 636.992188 C 414.933594 640.867188 411.792969 644.011719 407.914062 644.011719 C 404.039062 644.011719 400.894531 640.867188 400.894531 636.992188 C 400.894531 633.117188 404.039062 629.976562 407.914062 629.976562 C 411.792969 629.976562 414.933594 633.117188 414.933594 636.992188 " fill-opacity="1" fill-rule="nonzero"/><path fill="#00526f" d="M 208.902344 415.074219 C 208.5 411.648438 225.066406 407.359375 226.507812 406.988281 C 234.226562 404.988281 248.269531 402.601562 249.339844 405.613281 C 250.273438 408.234375 241.355469 414.945312 231.734375 417.4375 C 221.097656 420.195312 209.230469 417.894531 208.902344 415.074219 " fill-opacity="1" fill-rule="nonzero"/><g clip-path="url(#2e2f6142df)"><path fill="#f2af8f" d="M 216.648438 432.792969 C 216.9375 420.699219 218.421875 408.632812 221.070312 396.828125 C 223.519531 385.90625 220.96875 374.164062 218.871094 363.164062 C 217.5625 356.300781 216.140625 349.175781 211.9375 343.59375 C 204.589844 333.839844 191.953125 329.503906 185.34375 318.871094 C 184.871094 318.117188 184.417969 317.261719 184.550781 316.378906 C 184.757812 315.023438 186.324219 314.222656 187.6875 314.367188 C 189.050781 314.503906 190.242188 315.316406 191.363281 316.101562 C 199.46875 321.773438 207.574219 327.449219 215.679688 333.117188 C 207.5625 321.484375 202.695312 308.203125 197.148438 295.269531 C 196.539062 293.851562 195.984375 292.050781 197.011719 290.898438 C 197.820312 289.996094 199.289062 289.996094 200.363281 290.554688 C 205.5625 293.265625 208.226562 299.773438 211.367188 304.398438 C 215.660156 310.726562 219.25 317.644531 223.476562 324.085938 C 223.492188 309.183594 224 294.289062 224.089844 279.398438 C 224.09375 278.292969 224.128906 277.101562 224.796875 276.21875 C 225.792969 274.90625 227.894531 274.871094 229.257812 275.796875 C 230.621094 276.722656 231.355469 278.339844 231.746094 279.9375 C 235.398438 294.929688 235.5 311.222656 236.886719 326.636719 C 240.53125 320.738281 247.601562 317.53125 254.457031 316.46875 C 260.433594 315.542969 266.492188 317.039062 271.394531 320.570312 C 272.9375 321.675781 276.503906 323.765625 276.847656 325.816406 C 277.257812 328.246094 273.664062 329.464844 271.773438 329.226562 C 269.628906 328.960938 267.769531 327.667969 266.046875 326.367188 C 262.375 328.25 257.714844 328.148438 254.070312 326.214844 C 253.070312 328.285156 251.128906 329.921875 249.46875 331.515625 C 247.8125 333.105469 246.082031 334.667969 244.828125 336.597656 C 243.574219 338.523438 242.828125 340.90625 243.371094 343.140625 C 248.941406 344.59375 253.875 348.015625 257.65625 352.355469 C 261.898438 348.71875 267.554688 346.429688 273.121094 345.953125 C 272.417969 341.515625 273.265625 336.804688 275.046875 332.683594 C 275.71875 331.125 276.890625 329.433594 278.585938 329.460938 C 280.222656 329.484375 281.382812 331.183594 281.582031 332.8125 C 281.78125 334.433594 281.328125 336.0625 281.253906 337.699219 C 281.085938 341.429688 282.894531 345.148438 282.152344 348.808594 C 281.375 352.652344 278.03125 355.359375 274.90625 357.730469 C 271.550781 360.277344 269.496094 362.996094 266.921875 366.132812 C 264.554688 369.023438 260.710938 370.253906 257.664062 372.238281 C 248.71875 378.066406 247.429688 390.539062 247.421875 400.292969 C 247.414062 408.261719 248.304688 416.25 247.589844 424.183594 C 238.199219 429.421875 227.378906 432.117188 216.648438 432.792969 " fill-opacity="1" fill-rule="nonzero"/></g><path fill="#ef9e7c" d="M 439.867188 331.699219 C 438.433594 331.890625 436.980469 332.003906 435.503906 332.085938 C 432.898438 332.222656 430.207031 332.246094 427.351562 332.375 C 418.820312 332.753906 411.21875 332.480469 402.894531 329.785156 C 390.472656 325.765625 379.269531 318.09375 370.984375 308.011719 C 371.199219 303.273438 371.253906 298.53125 371.144531 293.789062 C 372.804688 294.480469 374.488281 295.097656 376.195312 295.65625 C 376.648438 295.804688 377.109375 295.949219 377.566406 296.089844 C 378.347656 296.324219 379.132812 296.550781 379.921875 296.761719 C 380.402344 296.886719 380.882812 297.007812 381.367188 297.125 C 381.394531 297.132812 381.421875 297.140625 381.445312 297.148438 C 382 297.28125 382.558594 297.410156 383.113281 297.53125 C 383.148438 297.539062 383.175781 297.546875 383.207031 297.550781 C 385.519531 298.054688 387.859375 298.441406 390.210938 298.71875 C 390.800781 298.785156 391.386719 298.847656 391.976562 298.90625 C 392.28125 298.929688 392.589844 298.960938 392.894531 298.988281 C 393.6875 299.050781 394.480469 299.101562 395.277344 299.144531 C 396.585938 299.207031 397.894531 299.238281 399.199219 299.238281 C 399.410156 299.238281 399.621094 299.238281 399.832031 299.238281 C 400.015625 299.238281 400.199219 299.234375 400.378906 299.234375 C 400.570312 299.230469 400.757812 299.226562 400.949219 299.21875 C 401.085938 299.21875 401.222656 299.210938 401.355469 299.207031 C 401.484375 299.207031 401.613281 299.203125 401.738281 299.199219 C 402.097656 299.1875 402.457031 299.175781 402.820312 299.152344 C 402.992188 299.144531 403.167969 299.140625 403.339844 299.128906 C 403.539062 299.121094 403.738281 299.109375 403.9375 299.09375 C 404.101562 299.085938 404.269531 299.074219 404.433594 299.0625 C 404.667969 299.046875 404.902344 299.027344 405.132812 299.011719 C 415.910156 298.121094 424.578125 293.738281 434.585938 290.816406 C 434.945312 290.710938 435.308594 290.609375 435.671875 290.507812 C 435.742188 290.609375 435.828125 290.742188 435.929688 290.914062 C 435.621094 299.972656 436.015625 309.074219 435.550781 318.125 C 435.285156 323.253906 436.292969 328.371094 439.867188 331.699219 " fill-opacity="1" fill-rule="nonzero"/><path fill="#f2af8f" d="M 425.710938 309.523438 C 430.921875 305.722656 435.769531 301.441406 440.484375 297.042969 C 444.824219 292.992188 449.921875 289.625 453.738281 285.042969 C 457.433594 280.597656 460.011719 275.21875 461.117188 269.539062 C 462.9375 270.699219 465.445312 270.234375 467.160156 268.925781 C 468.871094 267.613281 469.921875 265.625 470.71875 263.621094 C 475.367188 251.917969 471.742188 240.050781 470.375 228.125 C 469 216.117188 468.511719 203.605469 465.117188 192.152344 C 460.363281 176.113281 451.308594 160.890625 437.570312 151.335938 C 422.96875 141.179688 397.054688 136.378906 383.773438 150.816406 C 369.214844 166.644531 354.015625 182.683594 345.910156 202.960938 C 334.867188 230.574219 337.0625 262.539062 356.015625 286.015625 C 362.585938 294.160156 370.390625 301.207031 378.460938 307.832031 C 387.289062 315.074219 397.230469 321.355469 409.113281 318.234375 C 414.09375 316.933594 418.664062 314.375 422.925781 311.488281 C 423.867188 310.851562 424.792969 310.191406 425.710938 309.523438 " fill-opacity="1" fill-rule="nonzero"/><path fill="#dd5b62" d="M 402.074219 275.3125 C 400.8125 275.378906 400.285156 274.429688 398.625 273.578125 C 396.742188 272.609375 394.976562 272.582031 393.625 272.5625 C 390.101562 272.511719 388.761719 274.300781 385.109375 275.589844 C 382.269531 276.597656 379.144531 277.242188 376.25 276.394531 C 380.566406 281.167969 384.886719 285.941406 389.203125 290.714844 C 392.773438 294.671875 398.300781 296.660156 403.628906 296.234375 C 409.253906 295.785156 414.40625 292.707031 418.421875 288.742188 C 422.433594 284.78125 425.460938 279.945312 428.445312 275.164062 C 422.75 276.285156 418.96875 275.453125 416.511719 274.402344 C 414.949219 273.738281 412.855469 272.53125 409.8125 272.542969 C 408.496094 272.550781 406.894531 272.558594 405.207031 273.457031 C 403.589844 274.316406 403.292969 275.25 402.074219 275.3125 " fill-opacity="1" fill-rule="nonzero"/><path fill="#ffffff" d="M 385.34375 279.179688 C 388.730469 285.363281 395.691406 289.414062 402.742188 289.3125 C 409.792969 289.207031 416.628906 284.953125 419.832031 278.671875 C 408.296875 280.636719 396.925781 280.84375 385.34375 279.179688 " fill-opacity="1" fill-rule="nonzero"/><path fill="#17325a" d="M 539.277344 617.992188 C 539.0625 617.898438 538.773438 617.867188 538.761719 618.117188 C 538.777344 618.199219 538.789062 618.277344 538.789062 618.359375 C 538.820312 618.527344 538.871094 618.6875 538.945312 618.820312 C 538.984375 618.90625 539.039062 618.984375 539.097656 619.046875 L 539.835938 619.3125 C 539.523438 619.363281 539.277344 619.253906 539.097656 619.046875 L 538.992188 619.015625 L 538.6875 618.902344 C 538.5625 619.148438 538.34375 619.324219 538.011719 619.300781 L 538.144531 618.710938 L 538.011719 618.664062 L 537.929688 618.636719 C 538.011719 618.53125 538.105469 618.445312 538.222656 618.378906 L 538.191406 618.503906 L 538.144531 618.710938 L 538.6875 618.902344 C 538.761719 618.742188 538.796875 618.554688 538.789062 618.359375 C 538.773438 618.28125 538.769531 618.199219 538.761719 618.117188 C 538.75 618.082031 538.738281 618.050781 538.71875 618.03125 C 538.59375 617.855469 538.320312 618.007812 538.140625 618.175781 C 537.957031 618.351562 537.820312 618.625 537.746094 618.898438 C 537.707031 619.046875 537.683594 619.195312 537.683594 619.332031 L 537.609375 622.085938 L 539.324219 620.289062 L 539.589844 620.011719 C 539.671875 619.921875 539.738281 619.820312 539.78125 619.699219 L 540.054688 618.929688 C 539.910156 618.5625 539.644531 618.15625 539.277344 617.992188 " fill-opacity="1" fill-rule="nonzero"/><g clip-path="url(#ad2ffb223c)"><path fill="#006d94" d="M 654.648438 565.46875 C 652.074219 574.640625 643.269531 583.289062 624.289062 600.25 C 612.820312 610.5 602.894531 617.96875 589.101562 628.300781 C 577.917969 636.683594 568.519531 643.382812 562.0625 647.914062 C 548.46875 630.316406 541.242188 615.746094 540.671875 612.820312 C 539.921875 609 539.835938 605.367188 539.835938 605.367188 C 539.828125 605.078125 539.824219 604.847656 539.824219 604.707031 C 539.867188 604.664062 539.917969 604.625 539.964844 604.585938 C 553.425781 593.0625 565.902344 580.386719 577.207031 566.746094 C 582.167969 560.757812 587.8125 556.199219 584.023438 548.398438 C 581.53125 543.257812 577.378906 539.0625 573.546875 534.742188 C 572.1875 533.207031 570.863281 531.65625 569.671875 530.042969 C 567.277344 526.792969 564.878906 523.546875 562.484375 520.296875 C 559.785156 516.640625 557.085938 512.984375 554.386719 509.324219 C 549.019531 502.054688 543.632812 494.800781 538.285156 487.511719 C 536.386719 484.914062 523.601562 474.203125 523.601562 472.5 C 522.765625 495.382812 523.382812 518.371094 525.515625 541.207031 C 527.941406 567.15625 532.324219 592.914062 538.761719 618.117188 C 538.839844 618.425781 538.917969 618.734375 539 619.039062 C 546.894531 649.695312 557.832031 679.519531 571.972656 707.847656 C 557.523438 723.269531 537.121094 732.972656 516.039062 734.453125 C 519.023438 692.984375 496.09375 647.496094 483.882812 608.558594 C 472.65625 572.769531 458.25 536.59375 452.386719 499.542969 C 443.722656 444.835938 446.960938 388.257812 461.960938 334.933594 C 489.867188 340.84375 517.921875 351.359375 539.015625 370.550781 C 548.265625 378.960938 555.417969 389.378906 562.484375 399.695312 C 582.875 429.464844 603.4375 459.125 623.660156 489.015625 C 630.832031 499.621094 634.691406 510.867188 641.035156 521.738281 C 649.101562 535.566406 659.492188 548.210938 654.648438 565.46875 " fill-opacity="1" fill-rule="nonzero"/></g><path fill="#00526f" d="M 481.324219 349.699219 C 480.445312 357.15625 480.175781 365.109375 480.566406 372.609375 C 481.078125 382.378906 482.683594 392.113281 485.355469 401.515625 C 485.355469 401.515625 485.757812 402.929688 485.757812 402.929688 L 484.257812 403.007812 C 479.066406 403.300781 468.613281 403.820312 463.421875 404.085938 L 464.457031 401.675781 C 465.269531 402.582031 466.175781 403.410156 467.148438 404.136719 C 470.058594 406.328125 473.621094 407.628906 477.257812 407.820312 L 479.085938 407.921875 C 478.632812 410.246094 478.042969 413.160156 477.605469 415.484375 C 475.976562 424.03125 474.589844 432.792969 473.457031 441.421875 C 469.808594 469.386719 468.847656 497.746094 470.464844 525.90625 C 471.816406 549.246094 474.988281 572.546875 479.6875 595.453125 C 473.492188 572.820312 469.53125 549.492188 467.621094 526.101562 C 465.332031 497.75 466.140625 469.140625 469.945312 440.957031 C 471.140625 432.269531 472.613281 423.441406 474.375 414.847656 C 474.753906 412.921875 475.183594 411.007812 475.589844 409.089844 L 477.054688 411.015625 C 472.8125 410.71875 468.667969 409.140625 465.324219 406.511719 C 463.480469 405.132812 461.765625 403.007812 460.269531 401.265625 C 462.238281 401.21875 471.574219 400.949219 473.734375 400.898438 L 484.164062 400.640625 L 483.066406 402.128906 C 480.902344 393.5625 479.667969 384.769531 479.375 375.949219 C 479.082031 367.292969 479.738281 358.21875 481.324219 349.699219 " fill-opacity="1" fill-rule="nonzero"/><path fill="#00526f" d="M 562.484375 520.296875 C 559.785156 516.640625 557.085938 512.984375 554.386719 509.324219 C 549.019531 502.054688 543.632812 494.800781 538.285156 487.511719 C 536.386719 484.914062 523.601562 474.203125 523.601562 472.5 C 522.765625 495.382812 523.382812 518.371094 525.515625 541.207031 C 518.582031 524.171875 515.296875 505.777344 513.863281 487.5 C 511.855469 461.867188 513.335938 436.097656 512.574219 410.402344 C 521.246094 441.480469 534.539062 471.21875 551.332031 498.777344 C 555.21875 505.167969 559.328125 511.503906 561.882812 518.53125 C 562.09375 519.113281 562.292969 519.703125 562.484375 520.296875 " fill-opacity="1" fill-rule="nonzero"/><path fill="#006d94" d="M 271.574219 527.230469 C 272.242188 525.867188 272.914062 524.546875 273.597656 523.273438 C 277.90625 515.339844 282.246094 507.414062 286.550781 499.472656 C 287.285156 498.117188 288.019531 496.757812 288.753906 495.402344 C 290.757812 491.6875 304.335938 472.027344 302.871094 468.675781 C 317.539062 502.175781 316.566406 534.890625 308.949219 567.285156 C 295.511719 624.410156 261.382812 680.53125 255.859375 738.171875 C 280.648438 751.089844 309.050781 756.988281 336.9375 755 C 339.800781 743.285156 344.558594 731.84375 346.257812 719.902344 C 353.835938 666.636719 365.632812 613.074219 370.117188 559.464844 C 376.054688 488.546875 370.523438 413.453125 352.640625 344.570312 C 329.527344 344.671875 306.53125 352.929688 288.628906 367.546875 C 270.734375 382.164062 258.054688 403.050781 253.34375 425.667969 C 253.277344 422.503906 252.941406 418.671875 252.007812 414.410156 C 251.273438 411.042969 250.3125 408.09375 249.339844 405.613281 C 243.78125 409.050781 234.523438 413.6875 222.351562 415.035156 C 217.285156 415.589844 212.734375 415.46875 208.902344 415.074219 C 207.988281 420.878906 207.25 426.675781 206.664062 432.453125 C 202.550781 472.695312 205.722656 512.339844 208.835938 552.675781 C 209.164062 556.90625 209.5 561.1875 210.882812 565.195312 C 212.015625 568.476562 213.9375 571.597656 216.667969 573.683594 C 216.769531 573.757812 216.871094 573.835938 216.976562 573.910156 C 217.023438 573.945312 217.066406 573.976562 217.117188 574.011719 C 217.191406 574.066406 217.265625 574.117188 217.34375 574.167969 C 217.394531 574.203125 217.445312 574.234375 217.496094 574.269531 C 217.554688 574.308594 217.613281 574.34375 217.671875 574.378906 C 217.742188 574.425781 217.8125 574.464844 217.882812 574.507812 C 218.117188 574.652344 218.359375 574.789062 218.613281 574.914062 C 218.714844 574.96875 218.816406 575.019531 218.921875 575.066406 C 225.925781 578.421875 234.472656 574.621094 240.246094 569.347656 C 242.363281 567.414062 244.691406 565.339844 247.035156 563.195312 L 271.574219 527.230469 " fill-opacity="1" fill-rule="nonzero"/><path fill="#00526f" d="M 271.574219 527.230469 C 265.980469 536.570312 260.925781 544.199219 257.046875 549.820312 C 247.828125 563.179688 244.324219 566.574219 240.246094 569.347656 C 237.003906 571.550781 226.484375 578.949219 218.609375 574.914062 C 214.109375 572.609375 211.941406 568 210.882812 565.195312 C 197.113281 528.648438 202.386719 472.078125 202.386719 472.078125 C 203.808594 456.828125 205.867188 437.496094 208.902344 415.074219 C 213.367188 415.613281 217.890625 415.589844 222.351562 415.035156 C 221.015625 425.800781 219.917969 436.59375 219.148438 447.425781 C 217.15625 475.328125 217.074219 503.367188 218.917969 531.277344 C 219.3125 537.28125 219.835938 543.4375 222.4375 548.867188 C 225.039062 554.289062 230.183594 558.902344 236.199219 559.140625 C 242.265625 559.382812 247.601562 555.304688 251.964844 551.089844 C 259.390625 543.910156 265.71875 535.75 271.574219 527.230469 " fill-opacity="1" fill-rule="nonzero"/><path fill="#00526f" d="M 321.390625 508.234375 C 320.996094 528.445312 317.285156 549 308.949219 567.285156 C 316.566406 534.890625 317.535156 502.175781 302.871094 468.675781 C 304.335938 472.027344 290.753906 491.6875 288.75 495.402344 C 288.019531 496.757812 287.285156 498.117188 286.550781 499.472656 C 286.457031 499.078125 286.363281 498.6875 286.269531 498.296875 C 299.261719 474.921875 307.589844 448.964844 310.609375 422.394531 C 316.273438 450.734375 321.957031 479.34375 321.390625 508.234375 " fill-opacity="1" fill-rule="nonzero"/><path fill="#00526f" d="M 253.816406 426.75 C 261.699219 446.488281 264.285156 470.210938 261.503906 491.25 C 261.289062 492.691406 261.050781 494.132812 260.78125 495.566406 C 260.660156 494.109375 260.570312 492.65625 260.503906 491.210938 C 259.921875 481.148438 259.34375 471.070312 258.304688 461.054688 C 257.203125 449.582031 255.394531 438.175781 253.816406 426.75 " fill-opacity="1" fill-rule="nonzero"/><path fill="#00526f" d="M 336.742188 349.699219 C 337.507812 349.683594 339.703125 364.457031 337.785156 381.808594 C 336.78125 390.894531 334.910156 398.304688 333.375 403.410156 L 332.367188 402.644531 L 350.925781 402.71875 L 353.917969 402.726562 L 351.859375 404.941406 C 348.058594 409.058594 340.398438 417.238281 336.585938 421.335938 L 336.925781 419.773438 C 345.980469 445.175781 352.738281 472.109375 357.292969 498.722656 C 363.230469 534.265625 365.195312 571.15625 362.769531 607.109375 C 362.226562 613.839844 361.714844 620.683594 360.875 627.382812 L 360.082031 634.117188 L 360.488281 627.347656 C 360.972656 620.613281 361.160156 613.773438 361.445312 607.046875 C 362.558594 566.71875 359.167969 525.605469 351.332031 486.035156 C 346.871094 463.761719 340.988281 441.371094 333.710938 419.878906 C 337.910156 415.535156 345.734375 407.457031 349.949219 403.125 L 350.882812 405.351562 L 332.332031 404.789062 L 331.53125 404.765625 L 331.324219 404.03125 C 332.238281 398.78125 333.472656 390.972656 334.484375 381.441406 C 336.617188 361.382812 336.066406 349.714844 336.742188 349.699219 " fill-opacity="1" fill-rule="nonzero"/><g clip-path="url(#0ce1c676c1)"><path fill="#bf9158" d="M 421.101562 148.359375 C 442.246094 157.984375 457.257812 179.851562 458.636719 203.035156 C 459.207031 212.660156 461.222656 222.148438 464.101562 231.332031 C 466.398438 238.65625 468.75 248.921875 474.4375 254.390625 C 476.96875 256.824219 476.625 262.035156 474.597656 264.90625 C 473.527344 266.429688 471.738281 267.355469 470.761719 268.945312 C 468.40625 272.773438 470 281.152344 470.195312 285.5625 C 470.511719 292.65625 467.796875 299.570312 463.816406 305.34375 C 458.558594 312.976562 451.449219 319.089844 445.492188 326.140625 C 440.71875 331.785156 435.730469 336.640625 438.113281 344.859375 C 439.933594 351.144531 445.21875 355.953125 451.128906 358.746094 C 457.042969 361.546875 463.601562 362.621094 470.058594 363.660156 C 476.398438 373.050781 488.558594 377.671875 499.738281 375.832031 C 495.285156 367.664062 490.871094 358.59375 494.046875 349.847656 C 497.355469 340.742188 507.589844 336.453125 514.128906 329.304688 C 520.125 322.75 522.933594 313.402344 521.539062 304.628906 C 520.148438 295.855469 514.585938 287.839844 506.855469 283.460938 C 513.628906 275.421875 513.964844 263.507812 509.707031 253.898438 C 505.445312 244.289062 497.816406 236.652344 490.351562 229.25 C 501.824219 201.453125 491.160156 172.210938 474.03125 149.398438 C 468.03125 141.402344 460.179688 134.496094 450.734375 131.210938 C 441.292969 127.925781 430.140625 128.691406 422.121094 134.664062 C 422.320312 129.089844 419.203125 124.03125 414.332031 121.308594 C 409.464844 118.582031 403.628906 118.050781 398.078125 118.59375 C 381.605469 120.207031 365.007812 128.980469 351.410156 137.816406 C 337.640625 146.761719 326.476562 159.722656 319.765625 174.71875 C 311.933594 192.21875 310.222656 212.390625 314.992188 230.960938 C 316.601562 237.230469 312.488281 243.792969 309.183594 249.359375 C 305.882812 254.925781 301.6875 259.964844 298.804688 265.757812 C 292.5625 278.320312 293.316406 294.09375 300.730469 306 C 289.804688 322.03125 289.914062 345.269531 301.417969 360.890625 C 307.011719 368.480469 316.351562 374.640625 325.484375 372.289062 C 322.796875 370.710938 320.707031 368.136719 319.71875 365.179688 C 324.238281 366.339844 328.945312 366.78125 333.601562 366.480469 C 329.355469 364.59375 327.289062 359.402344 327.9375 354.804688 C 328.589844 350.210938 331.433594 346.195312 334.746094 342.941406 C 338.054688 339.683594 341.890625 337 345.246094 333.792969 C 354.039062 325.390625 358.515625 313.492188 359.117188 301.484375 C 359.800781 287.773438 353.21875 276.671875 347.375 264.679688 C 343.023438 255.742188 338.21875 242.921875 341.324219 232.863281 C 344.28125 223.289062 352.070312 216.527344 359.601562 210.488281 C 366.914062 204.617188 374.605469 197.75 375.980469 188.484375 C 377.542969 177.90625 384.417969 168.246094 392.511719 161.265625 C 400.609375 154.28125 411.367188 143.929688 421.101562 148.359375 " fill-opacity="1" fill-rule="nonzero"/></g><path fill="#cda066" d="M 427.835938 143.453125 C 444.003906 147.082031 458.699219 157.105469 467.722656 170.996094 C 473.714844 180.214844 477.109375 190.8125 479.007812 201.578125 C 481.90625 218.050781 482.710938 234.988281 488.828125 250.828125 C 496.152344 269.808594 518.972656 288.023438 516.96875 309.722656 C 515.417969 326.535156 501.5 330.445312 492.554688 342.167969 C 486.246094 350.429688 487.582031 358.050781 487.824219 368.03125 C 483 366.183594 478.339844 363.675781 474.722656 359.988281 C 471.105469 356.300781 468.613281 351.320312 468.671875 346.15625 C 468.746094 339.683594 472.6875 333.886719 477.183594 329.230469 C 481.679688 324.570312 486.90625 320.5625 490.652344 315.277344 C 497.488281 305.632812 498.363281 292.101562 492.824219 281.660156 C 495.027344 288.679688 491.34375 296.414062 486.996094 302.351562 C 482.648438 308.289062 476.855469 313.003906 471.964844 318.503906 C 467.074219 324.003906 462.941406 330.792969 463.085938 338.148438 C 458.675781 333.429688 459.289062 325.769531 462.125 319.972656 C 465.417969 313.25 470.492188 309.503906 475.148438 304.167969 C 479.628906 299.027344 481.582031 291.148438 482.710938 284.597656 C 485.207031 270.136719 483.113281 255.09375 479.78125 240.945312 C 476.808594 228.308594 473.898438 215.75 471.066406 203.140625 C 468.429688 191.40625 465.347656 179.328125 458.640625 169.171875 C 452.136719 159.324219 439.949219 146.171875 427.835938 143.453125 " fill-opacity="1" fill-rule="nonzero"/><path fill="#cda066" d="M 393.808594 127.449219 C 384.6875 129.253906 377.109375 135.722656 371.507812 143.144531 C 365.90625 150.558594 361.894531 159.03125 356.996094 166.933594 C 352.097656 174.832031 346.027344 182.40625 337.738281 186.617188 C 345.304688 188.25 353.15625 184.257812 358.402344 178.574219 C 363.648438 172.886719 366.867188 165.683594 370.375 158.789062 C 373.878906 151.886719 377.957031 144.957031 384.292969 140.515625 C 394.699219 133.21875 409.402344 134.417969 419.933594 140.816406 C 416.308594 137.511719 414.578125 133.050781 410.226562 130.351562 C 405.421875 127.359375 399.347656 126.351562 393.808594 127.449219 " fill-opacity="1" fill-rule="nonzero"/><path fill="#cda066" d="M 413.902344 143.777344 C 405.515625 139.09375 394.523438 142.265625 387.324219 148.621094 C 380.121094 154.976562 375.800781 163.886719 371.433594 172.441406 C 367.066406 180.996094 362.203125 189.738281 354.363281 195.292969 C 342.546875 203.667969 325.117188 204.636719 320.570312 220.425781 C 318.59375 227.289062 319.164062 234.617188 320.199219 241.683594 C 321.507812 250.636719 323.460938 259.132812 321.242188 268.027344 C 319.054688 276.804688 313.457031 284.207031 307.890625 291.132812 C 301.316406 299.3125 294.300781 307.804688 292.335938 318.113281 C 289.296875 334.054688 297.066406 353.609375 308.664062 364.523438 C 303.164062 353.472656 298.957031 341.261719 300.203125 328.984375 C 301.453125 316.707031 309.308594 304.476562 321.207031 301.191406 C 313.234375 309.269531 308.996094 320.421875 308.199219 331.742188 C 307.402344 343.066406 310.777344 354.632812 317.539062 363.75 C 311.960938 352.789062 312.128906 339.09375 317.980469 328.273438 C 322.898438 319.183594 331.316406 312.402344 336.410156 303.40625 C 342.964844 291.824219 343.214844 276.917969 337.058594 265.125 C 332.359375 256.128906 333.539062 244.578125 334.558594 234.484375 C 335.578125 224.390625 339.53125 214.195312 347.3125 207.675781 C 351.828125 203.898438 357.355469 201.554688 362.234375 198.257812 C 365.621094 195.964844 368.894531 192.988281 370.695312 189.246094 C 376.171875 177.851562 378.757812 165.320312 387.253906 155.496094 C 394.363281 147.277344 405.554688 141.667969 416.125 144.214844 C 414.636719 142.757812 415.71875 144.789062 413.902344 143.777344 " fill-opacity="1" fill-rule="nonzero"/><path fill="#cda066" d="M 360.84375 143.953125 C 358.800781 144.367188 356.628906 144.644531 354.882812 145.382812 C 352.234375 146.5 349.878906 148.074219 347.382812 149.53125 C 341.59375 152.917969 336.5 157.453125 332.722656 163.019531 C 324.71875 174.785156 324.269531 192.949219 328.140625 206.292969 C 326.625 201.074219 329.402344 192.179688 330.792969 187.105469 C 332.539062 180.742188 334.960938 173.910156 338.941406 168.601562 C 346.46875 158.550781 353.503906 149.015625 364.746094 142.671875 C 363.632812 143.300781 362.269531 143.664062 360.84375 143.953125 " fill-opacity="1" fill-rule="nonzero"/><path fill="#cda066" d="M 485.941406 196.855469 C 480.710938 183.464844 474.839844 170.128906 466.023438 158.769531 C 457.207031 147.414062 445.09375 138.082031 431.03125 135.074219 C 443.714844 137.320312 452.875 140.152344 462.691406 148.996094 C 471.394531 156.835938 478.140625 166.859375 482.097656 177.882812 C 483.210938 180.984375 484.101562 184.160156 484.75 187.390625 C 485.328125 190.253906 484.917969 194.210938 485.941406 196.855469 " fill-opacity="1" fill-rule="nonzero"/><path fill="#b3775d" d="M 410.703125 261.476562 C 410.109375 261.375 409.5 261.277344 408.90625 261.382812 C 408.3125 261.492188 407.722656 261.839844 407.5 262.398438 C 407.234375 263.066406 407.566406 263.863281 408.132812 264.304688 C 408.699219 264.75 409.445312 264.902344 410.160156 264.929688 C 411.292969 264.976562 414.203125 264.746094 414.5 263.246094 C 414.859375 261.433594 412.003906 261.691406 410.703125 261.476562 " fill-opacity="1" fill-rule="nonzero"/><path fill="#b3775d" d="M 393.996094 261.476562 C 394.589844 261.375 395.199219 261.277344 395.792969 261.382812 C 396.386719 261.492188 396.972656 261.839844 397.195312 262.398438 C 397.460938 263.066406 397.128906 263.863281 396.5625 264.304688 C 395.996094 264.75 395.253906 264.902344 394.535156 264.929688 C 393.40625 264.976562 390.492188 264.746094 390.195312 263.246094 C 389.839844 261.433594 392.695312 261.691406 393.996094 261.476562 " fill-opacity="1" fill-rule="nonzero"/><path fill="#f2af8f" d="M 449.738281 622.492188 C 443.867188 624.910156 438.292969 627.910156 432.265625 630.1875 C 430.578125 630.828125 427.316406 631.390625 426.066406 632.753906 C 423.292969 635.761719 429.84375 638.664062 432.1875 638.910156 C 438.71875 639.585938 445.03125 634.617188 450.777344 632.214844 C 457.566406 629.378906 464.667969 627.285156 471.914062 626.003906 C 470.109375 626.003906 467.480469 627.523438 465.757812 628.117188 C 463.59375 628.855469 461.433594 629.597656 459.273438 630.339844 C 456.972656 631.128906 454.515625 632.019531 452.152344 633.121094 C 448.746094 634.71875 445.738281 636.882812 442.957031 639.386719 C 442.046875 640.207031 441.351562 641.582031 441.996094 642.617188 C 442.503906 643.445312 443.609375 643.644531 444.578125 643.691406 C 450.058594 643.945312 454.855469 641.253906 459.496094 638.699219 C 460.472656 638.160156 461.605469 637.296875 462.703125 637.15625 C 464.089844 636.980469 465.6875 637.390625 467.136719 637.257812 C 470.320312 636.957031 473.398438 635.976562 476.429688 635.007812 C 479.402344 634.054688 481.78125 632.714844 484.921875 633.742188 C 487.832031 634.691406 490.101562 637.078125 491.917969 639.4375 C 493.082031 640.953125 494.160156 642.539062 495.394531 644.003906 C 496.5625 645.386719 498.121094 646.425781 499.210938 647.839844 C 501.585938 650.925781 503.945312 653.671875 507.316406 655.773438 C 516.910156 661.761719 526.945312 657.316406 536.382812 653.339844 C 546.589844 649.039062 556.25 643.398438 564.925781 636.503906 C 557.644531 628.945312 550.660156 620.242188 545.4375 611.144531 C 540.738281 616.625 535.242188 621.429688 529.175781 625.351562 C 525.90625 627.464844 524.25 628.273438 520.65625 626.242188 C 517.957031 624.707031 515.882812 622.242188 513.925781 619.886719 C 511.570312 617.066406 509.054688 614.460938 507 611.441406 C 504.785156 608.191406 502.464844 604.996094 499.761719 602.132812 C 496.164062 598.320312 491.816406 595.082031 486.8125 593.515625 C 481.679688 591.910156 476.183594 592.144531 470.808594 592.105469 C 462.308594 592.042969 453.8125 592.039062 445.3125 592.011719 C 441 592 436.691406 591.976562 432.378906 591.9375 C 429.953125 591.917969 425.320312 592.03125 424.429688 594.992188 C 424.027344 596.339844 424.773438 597.820312 425.882812 598.683594 C 426.992188 599.542969 428.398438 599.914062 429.769531 600.226562 C 442.375 603.089844 455.460938 602.714844 468.382812 602.324219 C 460.585938 605.808594 452.148438 606.796875 444.125 609.726562 C 435.855469 612.746094 428.761719 618.238281 421.816406 623.648438 C 421.070312 624.230469 420.257812 624.9375 420.214844 625.878906 C 420.15625 627.183594 421.566406 628.035156 422.828125 628.355469 C 425.863281 629.121094 429.101562 628.546875 432.027344 627.433594 C 434.957031 626.320312 437.65625 624.695312 440.445312 623.273438 C 450.527344 618.136719 460.578125 614.246094 472.140625 615.378906 C 470.292969 615.199219 467.769531 616.234375 465.957031 616.667969 C 463.605469 617.230469 461.304688 618.015625 459.109375 619.019531 C 456.082031 620.40625 452.828125 621.226562 449.738281 622.492188 " fill-opacity="1" fill-rule="nonzero"/><path fill="#006d94" d="M 556.007812 599.304688 C 554.605469 598.441406 553.058594 597.820312 551.453125 598.035156 C 549.390625 598.3125 547.777344 599.878906 546.351562 601.390625 C 542.558594 605.417969 538.964844 609.632812 535.585938 614.011719 C 533.988281 616.078125 532.578125 618.25 531.105469 620.375 C 529.949219 622.046875 528.308594 623.363281 527.382812 625.230469 C 525.605469 628.820312 526.445312 633.117188 527.609375 636.957031 C 529.582031 643.460938 532.382812 649.71875 535.921875 655.523438 C 536.894531 657.121094 538.074219 658.796875 539.871094 659.3125 C 541.855469 659.882812 543.910156 658.855469 545.707031 657.84375 C 559.347656 650.160156 572.367188 641.386719 584.613281 631.632812 C 585.964844 630.554688 573.332031 616.035156 572.054688 614.730469 C 569.722656 612.351562 567.027344 610.308594 564.976562 607.703125 C 562.777344 604.914062 560.25 602.402344 557.40625 600.269531 C 556.957031 599.933594 556.492188 599.605469 556.007812 599.304688 " fill-opacity="1" fill-rule="nonzero"/><path fill="#00526f" d="M 641.667969 541.085938 C 626.003906 546.632812 605.375 555.828125 583.855469 571.335938 C 555.230469 591.96875 537.039062 615.121094 526.40625 631.167969 C 525.738281 629.335938 525.09375 627.058594 524.738281 624.402344 C 524.546875 622.957031 524.472656 621.621094 524.464844 620.410156 C 532.367188 609.53125 539.863281 601.902344 545.101562 597.042969 C 555.894531 587.039062 565.871094 576.125 577.207031 566.746094 C 579.429688 564.90625 584.847656 560.246094 585.246094 553.863281 C 585.351562 552.203125 585 550.40625 584.023438 548.398438 C 581.53125 543.257812 577.378906 539.0625 573.546875 534.742188 C 575.011719 534.621094 580.496094 538.054688 582.183594 538.472656 C 585.429688 539.273438 588.835938 539.511719 592.164062 539.347656 C 600.71875 538.921875 608.992188 536.214844 617.5 535.207031 C 626.007812 534.203125 635.421875 535.226562 641.667969 541.085938 " fill-opacity="1" fill-rule="nonzero"/><path fill="#ffffff" d="M 431.921875 223.019531 C 438.890625 221.5625 446.558594 224.214844 451.140625 229.664062 C 448.722656 235.742188 442.332031 239.617188 435.839844 240.433594 C 432.8125 240.816406 429.746094 240.621094 426.757812 240.046875 C 424.203125 239.558594 419.886719 238.925781 417.804688 237.289062 C 415.023438 235.109375 422.558594 227.71875 424.582031 226.273438 C 426.777344 224.707031 429.28125 223.570312 431.921875 223.019531 " fill-opacity="1" fill-rule="nonzero"/><path fill="#64493d" d="M 441.378906 231.878906 C 441.378906 236.988281 437.234375 241.128906 432.121094 241.128906 C 427.007812 241.128906 422.863281 236.988281 422.863281 231.878906 C 422.863281 226.765625 427.007812 222.625 432.121094 222.625 C 437.234375 222.625 441.378906 226.765625 441.378906 231.878906 " fill-opacity="1" fill-rule="nonzero"/><path fill="#000000" d="M 437.792969 231.628906 C 437.792969 234.757812 435.253906 237.296875 432.121094 237.296875 C 428.988281 237.296875 426.449219 234.757812 426.449219 231.628906 C 426.449219 228.496094 428.988281 225.957031 432.121094 225.957031 C 435.253906 225.957031 437.792969 228.496094 437.792969 231.628906 " fill-opacity="1" fill-rule="nonzero"/><path fill="#ffffff" d="M 434.59375 230.757812 C 434.59375 231.957031 433.617188 232.933594 432.414062 232.933594 C 431.210938 232.933594 430.234375 231.957031 430.234375 230.757812 C 430.234375 229.550781 431.210938 228.578125 432.414062 228.578125 C 433.617188 228.578125 434.59375 229.550781 434.59375 230.757812 " fill-opacity="1" fill-rule="nonzero"/><path fill="#ffffff" d="M 439.972656 233.597656 C 439.972656 234.804688 438.996094 235.777344 437.792969 235.777344 C 436.589844 235.777344 435.613281 234.804688 435.613281 233.597656 C 435.613281 232.394531 436.589844 231.417969 437.792969 231.417969 C 438.996094 231.417969 439.972656 232.394531 439.972656 233.597656 " fill-opacity="1" fill-rule="nonzero"/><path fill="#3d1b11" d="M 449.382812 230.207031 C 445.449219 227.097656 440.59375 225.167969 435.597656 224.726562 C 428.175781 224.066406 420.574219 229.082031 417.347656 235.605469 C 417.769531 230.199219 421.171875 225.078125 425.960938 222.527344 C 430.75 219.980469 436.667969 219.824219 441.71875 221.796875 C 444.039062 222.703125 446.214844 224.03125 448.652344 224.539062 C 450.738281 224.976562 452.949219 224.765625 454.917969 223.957031 C 454.867188 227.132812 453.222656 230.242188 450.625 232.078125 C 451.914062 232.347656 453.273438 232.292969 454.535156 231.917969 C 453.257812 233.203125 451.425781 233.925781 449.613281 233.847656 C 447.304688 236.734375 444.09375 238.910156 440.589844 240.078125 C 437.082031 241.25 433.238281 241.378906 429.65625 240.457031 C 433.601562 240.066406 437.511719 239.800781 441.179688 238.304688 C 444.847656 236.808594 448.046875 233.933594 449.382812 230.207031 " fill-opacity="1" fill-rule="nonzero"/><path fill="#3d1b11" d="M 423.820312 208.363281 C 426.253906 207.035156 428.960938 206.3125 431.640625 205.597656 C 434.277344 204.890625 436.976562 204.179688 439.699219 204.386719 C 443.195312 204.648438 446.398438 206.398438 449.320312 208.332031 C 450.855469 209.347656 452.394531 210.476562 453.3125 212.070312 C 452.4375 212.261719 451.558594 211.84375 450.765625 211.433594 C 448.765625 210.398438 446.757812 209.3125 444.550781 208.875 C 440.351562 208.03125 436.085938 209.613281 432.09375 211.175781 C 428.804688 212.457031 425.511719 213.746094 422.222656 215.03125 C 421.46875 215.320312 420.6875 215.625 419.882812 215.570312 C 417.546875 215.417969 418.957031 212.425781 419.8125 211.429688 C 420.90625 210.160156 422.355469 209.160156 423.820312 208.363281 " fill-opacity="1" fill-rule="nonzero"/><path fill="#ffffff" d="M 372.773438 223.019531 C 365.808594 221.5625 358.136719 224.214844 353.558594 229.664062 C 355.972656 235.742188 362.363281 239.617188 368.859375 240.433594 C 371.882812 240.816406 374.953125 240.621094 377.941406 240.046875 C 380.492188 239.558594 384.808594 238.925781 386.894531 237.289062 C 389.675781 235.109375 382.136719 227.71875 380.113281 226.273438 C 377.921875 224.707031 375.414062 223.570312 372.773438 223.019531 " fill-opacity="1" fill-rule="nonzero"/><path fill="#64493d" d="M 381.832031 231.878906 C 381.832031 236.988281 377.6875 241.128906 372.574219 241.128906 C 367.460938 241.128906 363.320312 236.988281 363.320312 231.878906 C 363.320312 226.765625 367.460938 222.625 372.574219 222.625 C 377.6875 222.625 381.832031 226.765625 381.832031 231.878906 " fill-opacity="1" fill-rule="nonzero"/><path fill="#000000" d="M 378.246094 231.628906 C 378.246094 234.757812 375.707031 237.296875 372.574219 237.296875 C 369.441406 237.296875 366.902344 234.757812 366.902344 231.628906 C 366.902344 228.496094 369.441406 225.957031 372.574219 225.957031 C 375.707031 225.957031 378.246094 228.496094 378.246094 231.628906 " fill-opacity="1" fill-rule="nonzero"/><path fill="#ffffff" d="M 375.046875 230.757812 C 375.046875 231.957031 374.070312 232.933594 372.867188 232.933594 C 371.664062 232.933594 370.6875 231.957031 370.6875 230.757812 C 370.6875 229.550781 371.664062 228.578125 372.867188 228.578125 C 374.070312 228.578125 375.046875 229.550781 375.046875 230.757812 " fill-opacity="1" fill-rule="nonzero"/><path fill="#ffffff" d="M 380.425781 233.597656 C 380.425781 234.804688 379.449219 235.777344 378.246094 235.777344 C 377.042969 235.777344 376.066406 234.804688 376.066406 233.597656 C 376.066406 232.394531 377.042969 231.417969 378.246094 231.417969 C 379.449219 231.417969 380.425781 232.394531 380.425781 233.597656 " fill-opacity="1" fill-rule="nonzero"/><path fill="#3d1b11" d="M 355.316406 230.207031 C 359.25 227.097656 364.105469 225.167969 369.101562 224.726562 C 376.519531 224.066406 384.121094 229.082031 387.351562 235.605469 C 386.925781 230.199219 383.523438 225.078125 378.734375 222.527344 C 373.949219 219.980469 368.03125 219.824219 362.976562 221.796875 C 360.65625 222.703125 358.484375 224.03125 356.046875 224.539062 C 353.960938 224.976562 351.746094 224.765625 349.777344 223.957031 C 349.832031 227.132812 351.476562 230.242188 354.070312 232.078125 C 352.78125 232.347656 351.425781 232.292969 350.160156 231.917969 C 351.441406 233.203125 353.269531 233.925781 355.085938 233.847656 C 357.394531 236.734375 360.601562 238.910156 364.109375 240.078125 C 367.617188 241.25 371.460938 241.378906 375.039062 240.457031 C 371.09375 240.066406 367.1875 239.800781 363.515625 238.304688 C 359.847656 236.808594 356.652344 233.933594 355.316406 230.207031 " fill-opacity="1" fill-rule="nonzero"/><path fill="#3d1b11" d="M 380.878906 208.363281 C 378.441406 207.035156 375.734375 206.3125 373.058594 205.597656 C 370.417969 204.890625 367.71875 204.179688 364.996094 204.386719 C 361.503906 204.648438 358.300781 206.398438 355.378906 208.332031 C 353.84375 209.347656 352.304688 210.476562 351.382812 212.070312 C 352.257812 212.261719 353.140625 211.84375 353.933594 211.433594 C 355.929688 210.398438 357.941406 209.3125 360.144531 208.875 C 364.34375 208.03125 368.613281 209.613281 372.601562 211.175781 C 375.894531 212.457031 379.183594 213.746094 382.476562 215.03125 C 383.226562 215.320312 384.011719 215.625 384.816406 215.570312 C 387.152344 215.417969 385.742188 212.425781 384.882812 211.429688 C 383.792969 210.160156 382.339844 209.160156 380.878906 208.363281 " fill-opacity="1" fill-rule="nonzero"/><path fill="#740e05" d="M 348.980469 224.765625 C 350.328125 222.945312 352.816406 222.476562 355.0625 222.164062 C 361.144531 221.304688 367.261719 220.515625 373.402344 220.652344 C 378.40625 220.765625 384.6875 221.226562 389.171875 223.699219 C 394.03125 226.375 391.167969 233.917969 389.53125 237.683594 C 388.605469 239.816406 387.507812 242.761719 385.882812 244.472656 C 383.640625 246.835938 379.632812 247.210938 376.582031 247.660156 C 371.730469 248.375 366.777344 248.390625 361.921875 247.710938 C 358.386719 247.210938 353.007812 246.785156 350.914062 243.464844 C 349.96875 241.972656 349.566406 240.210938 349.175781 238.488281 C 348.257812 234.417969 346.140625 228.609375 348.980469 224.765625 Z M 415.527344 223.699219 C 420.007812 221.226562 426.292969 220.765625 431.296875 220.652344 C 437.433594 220.515625 443.554688 221.304688 449.636719 222.164062 C 451.882812 222.476562 454.367188 222.945312 455.714844 224.765625 C 458.554688 228.609375 456.441406 234.417969 455.519531 238.488281 C 455.132812 240.210938 454.726562 241.972656 453.785156 243.464844 C 451.691406 246.785156 446.3125 247.210938 442.777344 247.710938 C 437.921875 248.390625 432.964844 248.375 428.113281 247.660156 C 425.0625 247.210938 421.058594 246.835938 418.8125 244.472656 C 417.1875 242.761719 416.09375 239.816406 415.167969 237.683594 C 413.53125 233.917969 410.664062 226.375 415.527344 223.699219 Z M 339.359375 225.949219 C 339.992188 227.160156 342.503906 227.042969 342.902344 228.347656 C 344.023438 231.984375 344.589844 235.691406 346.011719 239.261719 C 346.933594 241.574219 347.460938 244.304688 349.230469 246.160156 C 352.363281 249.449219 357.535156 249.941406 361.804688 250.304688 C 366.554688 250.707031 371.328125 250.78125 376.085938 250.523438 C 378.84375 250.375 381.671875 250.09375 384.144531 248.867188 C 388.367188 246.765625 390.855469 242.253906 392.261719 237.753906 C 393.039062 235.277344 393.605469 232.628906 394.988281 230.398438 C 395.84375 229.023438 397.082031 228.125 397.492188 226.878906 L 407.203125 226.878906 C 407.617188 228.125 408.855469 229.023438 409.707031 230.398438 C 411.09375 232.628906 411.65625 235.277344 412.433594 237.753906 C 413.84375 242.253906 416.328125 246.765625 420.550781 248.867188 C 423.027344 250.09375 425.855469 250.375 428.613281 250.523438 C 433.371094 250.78125 438.144531 250.707031 442.890625 250.304688 C 447.160156 249.941406 452.332031 249.449219 455.46875 246.160156 C 457.238281 244.304688 457.761719 241.574219 458.683594 239.261719 C 460.109375 235.691406 460.675781 231.984375 461.792969 228.347656 C 462.195312 227.042969 464.707031 227.160156 465.339844 225.949219 C 465.574219 225.492188 465.5625 224.953125 465.546875 224.441406 C 465.492188 222.667969 465.433594 220.890625 465.375 219.117188 C 456.890625 218.625 448.324219 218.023438 439.839844 217.53125 C 433.917969 217.191406 427.9375 216.882812 422.027344 217.621094 C 417.851562 218.136719 412.109375 218.957031 408.980469 222.195312 L 395.71875 222.195312 C 392.589844 218.957031 386.847656 218.136719 382.667969 217.621094 C 376.761719 216.882812 370.78125 217.191406 364.855469 217.53125 C 356.371094 218.023438 347.804688 218.625 339.320312 219.117188 C 339.261719 220.890625 339.207031 222.667969 339.148438 224.441406 C 339.132812 224.953125 339.121094 225.492188 339.359375 225.949219 " fill-opacity="1" fill-rule="nonzero"/></svg>